<mxfile host="65bd71144e" pages="3">
    <diagram name="Fase 1" id="R0geDSO9Yz643nZ7OQsf">
        <mxGraphModel dx="1658" dy="1779" grid="1" gridSize="10" guides="1" tooltips="1" connect="1" arrows="1" fold="1" page="1" pageScale="1" pageWidth="827" pageHeight="1169" math="0" shadow="0">
            <root>
                <mxCell id="0"/>
                <mxCell id="1" parent="0"/>
                <mxCell id="J-9a75vAs1KpzCj4fgVG-51" value="" style="rounded=0;whiteSpace=wrap;html=1;fillColor=none;strokeColor=#A680B8;" parent="1" vertex="1">
                    <mxGeometry x="25" y="185" width="220" height="210" as="geometry"/>
                </mxCell>
                <mxCell id="J-9a75vAs1KpzCj4fgVG-40" value="" style="rounded=0;whiteSpace=wrap;html=1;fillColor=none;strokeColor=#FF8000;" parent="1" vertex="1">
                    <mxGeometry x="350" y="130" width="300" height="410" as="geometry"/>
                </mxCell>
                <mxCell id="J-9a75vAs1KpzCj4fgVG-3" value="&lt;b&gt;ALB&lt;/b&gt;" style="outlineConnect=0;dashed=1;verticalLabelPosition=bottom;verticalAlign=top;align=center;html=1;shape=mxgraph.aws3.application_load_balancer;fillColor=#F58534;gradientColor=none;direction=east;" parent="1" vertex="1">
                    <mxGeometry x="470.25" y="110.25" width="49.5" height="50" as="geometry"/>
                </mxCell>
                <mxCell id="J-9a75vAs1KpzCj4fgVG-27" value="&lt;b&gt;S3&lt;/b&gt;&lt;div&gt;Application Version&lt;/div&gt;" style="sketch=0;points=[[0,0,0],[0.25,0,0],[0.5,0,0],[0.75,0,0],[1,0,0],[0,1,0],[0.25,1,0],[0.5,1,0],[0.75,1,0],[1,1,0],[0,0.25,0],[0,0.5,0],[0,0.75,0],[1,0.25,0],[1,0.5,0],[1,0.75,0]];outlineConnect=0;fontColor=#232F3E;fillColor=#7AA116;strokeColor=#ffffff;dashed=0;verticalLabelPosition=bottom;verticalAlign=top;align=center;html=1;fontSize=12;fontStyle=0;aspect=fixed;shape=mxgraph.aws4.resourceIcon;resIcon=mxgraph.aws4.s3;" parent="1" vertex="1">
                    <mxGeometry x="115" y="225" width="40" height="40" as="geometry"/>
                </mxCell>
                <mxCell id="J-9a75vAs1KpzCj4fgVG-84" style="edgeStyle=orthogonalEdgeStyle;rounded=0;orthogonalLoop=1;jettySize=auto;html=1;" parent="1" source="J-9a75vAs1KpzCj4fgVG-2" target="J-9a75vAs1KpzCj4fgVG-42" edge="1">
                    <mxGeometry relative="1" as="geometry"/>
                </mxCell>
                <mxCell id="J-9a75vAs1KpzCj4fgVG-2" value="&lt;b&gt;AutoScalling&lt;/b&gt;" style="sketch=0;points=[[0,0,0],[0.25,0,0],[0.5,0,0],[0.75,0,0],[1,0,0],[0,1,0],[0.25,1,0],[0.5,1,0],[0.75,1,0],[1,1,0],[0,0.25,0],[0,0.5,0],[0,0.75,0],[1,0.25,0],[1,0.5,0],[1,0.75,0]];outlineConnect=0;fontColor=#232F3E;fillColor=#ED7100;strokeColor=#ffffff;verticalLabelPosition=bottom;verticalAlign=top;align=center;html=1;fontSize=12;fontStyle=0;aspect=fixed;shape=mxgraph.aws4.resourceIcon;resIcon=mxgraph.aws4.auto_scaling2;" parent="1" vertex="1">
                    <mxGeometry x="481.72" y="200" width="26.56" height="26.56" as="geometry"/>
                </mxCell>
                <mxCell id="J-9a75vAs1KpzCj4fgVG-50" value="&lt;b&gt;&lt;font color=&quot;#999999&quot;&gt;Workload WebApp&lt;/font&gt;&lt;/b&gt;" style="text;html=1;align=center;verticalAlign=middle;resizable=0;points=[];autosize=1;strokeColor=none;fillColor=none;" parent="1" vertex="1">
                    <mxGeometry x="520" y="130" width="130" height="30" as="geometry"/>
                </mxCell>
                <mxCell id="J-9a75vAs1KpzCj4fgVG-52" value="&lt;b&gt;&lt;font color=&quot;#999999&quot;&gt;Versionamento&lt;/font&gt;&lt;/b&gt;" style="text;html=1;align=center;verticalAlign=middle;resizable=0;points=[];autosize=1;strokeColor=none;fillColor=none;" parent="1" vertex="1">
                    <mxGeometry x="135" y="185" width="110" height="30" as="geometry"/>
                </mxCell>
                <mxCell id="J-9a75vAs1KpzCj4fgVG-68" value="" style="shape=actor;whiteSpace=wrap;html=1;" parent="1" vertex="1">
                    <mxGeometry x="115" y="-65" width="40" height="60" as="geometry"/>
                </mxCell>
                <mxCell id="J-9a75vAs1KpzCj4fgVG-77" style="edgeStyle=orthogonalEdgeStyle;rounded=0;orthogonalLoop=1;jettySize=auto;html=1;" parent="1" source="J-9a75vAs1KpzCj4fgVG-69" target="J-9a75vAs1KpzCj4fgVG-27" edge="1">
                    <mxGeometry relative="1" as="geometry"/>
                </mxCell>
                <mxCell id="J-9a75vAs1KpzCj4fgVG-78" value="Subida de nova versÃ£o" style="edgeLabel;html=1;align=center;verticalAlign=middle;resizable=0;points=[];" parent="J-9a75vAs1KpzCj4fgVG-77" vertex="1" connectable="0">
                    <mxGeometry x="-0.3379" relative="1" as="geometry">
                        <mxPoint y="37" as="offset"/>
                    </mxGeometry>
                </mxCell>
                <mxCell id="J-9a75vAs1KpzCj4fgVG-69" value="Dev" style="text;html=1;align=center;verticalAlign=middle;resizable=0;points=[];autosize=1;strokeColor=none;fillColor=none;" parent="1" vertex="1">
                    <mxGeometry x="115" y="-5" width="40" height="30" as="geometry"/>
                </mxCell>
                <mxCell id="J-9a75vAs1KpzCj4fgVG-72" value="AWS Account" style="points=[[0,0],[0.25,0],[0.5,0],[0.75,0],[1,0],[1,0.25],[1,0.5],[1,0.75],[1,1],[0.75,1],[0.5,1],[0.25,1],[0,1],[0,0.75],[0,0.5],[0,0.25]];outlineConnect=0;gradientColor=none;html=1;whiteSpace=wrap;fontSize=12;fontStyle=0;container=1;pointerEvents=0;collapsible=0;recursiveResize=0;shape=mxgraph.aws4.group;grIcon=mxgraph.aws4.group_account;strokeColor=#CD2264;fillColor=none;verticalAlign=top;align=left;spacingLeft=30;fontColor=#CD2264;dashed=0;" parent="1" vertex="1">
                    <mxGeometry x="-30" y="70" width="1090" height="480" as="geometry"/>
                </mxCell>
                <mxCell id="QDzc27k9Aec-kQCt-gAj-10" style="edgeStyle=orthogonalEdgeStyle;rounded=0;orthogonalLoop=1;jettySize=auto;html=1;dashed=1;" parent="J-9a75vAs1KpzCj4fgVG-72" source="J-9a75vAs1KpzCj4fgVG-42" target="QDzc27k9Aec-kQCt-gAj-6" edge="1">
                    <mxGeometry relative="1" as="geometry">
                        <Array as="points">
                            <mxPoint x="750" y="230"/>
                            <mxPoint x="750" y="230"/>
                        </Array>
                    </mxGeometry>
                </mxCell>
                <mxCell id="J-9a75vAs1KpzCj4fgVG-42" value="&lt;div&gt;&lt;b&gt;WebApp&lt;/b&gt;&lt;/div&gt;&lt;div&gt;us-east-1b&lt;/div&gt;" style="sketch=0;points=[[0,0,0],[0.25,0,0],[0.5,0,0],[0.75,0,0],[1,0,0],[0,1,0],[0.25,1,0],[0.5,1,0],[0.75,1,0],[1,1,0],[0,0.25,0],[0,0.5,0],[0,0.75,0],[1,0.25,0],[1,0.5,0],[1,0.75,0]];outlineConnect=0;fontColor=#232F3E;fillColor=#ED7100;strokeColor=#ffffff;dashed=1;verticalLabelPosition=bottom;verticalAlign=top;align=center;html=1;fontSize=12;fontStyle=0;aspect=fixed;shape=mxgraph.aws4.resourceIcon;resIcon=mxgraph.aws4.ec2;" parent="J-9a75vAs1KpzCj4fgVG-72" vertex="1">
                    <mxGeometry x="580" y="190" width="40" height="40" as="geometry"/>
                </mxCell>
                <mxCell id="QDzc27k9Aec-kQCt-gAj-11" style="edgeStyle=orthogonalEdgeStyle;rounded=0;orthogonalLoop=1;jettySize=auto;html=1;dashed=1;entryX=-0.006;entryY=0.506;entryDx=0;entryDy=0;entryPerimeter=0;" parent="J-9a75vAs1KpzCj4fgVG-72" source="J-9a75vAs1KpzCj4fgVG-17" target="QDzc27k9Aec-kQCt-gAj-8" edge="1">
                    <mxGeometry relative="1" as="geometry">
                        <Array as="points">
                            <mxPoint x="450" y="320"/>
                        </Array>
                    </mxGeometry>
                </mxCell>
                <mxCell id="J-9a75vAs1KpzCj4fgVG-17" value="&lt;div&gt;&lt;b&gt;WebApp&lt;/b&gt;&lt;/div&gt;&lt;div&gt;us-east-1a&lt;/div&gt;" style="sketch=0;points=[[0,0,0],[0.25,0,0],[0.5,0,0],[0.75,0,0],[1,0,0],[0,1,0],[0.25,1,0],[0.5,1,0],[0.75,1,0],[1,1,0],[0,0.25,0],[0,0.5,0],[0,0.75,0],[1,0.25,0],[1,0.5,0],[1,0.75,0]];outlineConnect=0;fontColor=#232F3E;fillColor=#ED7100;strokeColor=#ffffff;dashed=1;verticalLabelPosition=bottom;verticalAlign=top;align=center;html=1;fontSize=12;fontStyle=0;aspect=fixed;shape=mxgraph.aws4.resourceIcon;resIcon=mxgraph.aws4.ec2;" parent="J-9a75vAs1KpzCj4fgVG-72" vertex="1">
                    <mxGeometry x="430" y="190" width="40" height="40" as="geometry"/>
                </mxCell>
                <mxCell id="J-9a75vAs1KpzCj4fgVG-7" value="&lt;b&gt;CodePipeline&lt;/b&gt;&lt;div&gt;&lt;br&gt;&lt;/div&gt;" style="sketch=0;points=[[0,0,0],[0.25,0,0],[0.5,0,0],[0.75,0,0],[1,0,0],[0,1,0],[0.25,1,0],[0.5,1,0],[0.75,1,0],[1,1,0],[0,0.25,0],[0,0.5,0],[0,0.75,0],[1,0.25,0],[1,0.5,0],[1,0.75,0]];outlineConnect=0;fontColor=#232F3E;fillColor=#C925D1;strokeColor=#ffffff;dashed=1;verticalLabelPosition=bottom;verticalAlign=top;align=center;html=1;fontSize=12;fontStyle=0;aspect=fixed;shape=mxgraph.aws4.resourceIcon;resIcon=mxgraph.aws4.codepipeline;" parent="J-9a75vAs1KpzCj4fgVG-72" vertex="1">
                    <mxGeometry x="90" y="235" width="40" height="40" as="geometry"/>
                </mxCell>
                <mxCell id="J-9a75vAs1KpzCj4fgVG-6" value="&lt;b&gt;CodeDeploy&lt;/b&gt;" style="sketch=0;points=[[0,0,0],[0.25,0,0],[0.5,0,0],[0.75,0,0],[1,0,0],[0,1,0],[0.25,1,0],[0.5,1,0],[0.75,1,0],[1,1,0],[0,0.25,0],[0,0.5,0],[0,0.75,0],[1,0.25,0],[1,0.5,0],[1,0.75,0]];outlineConnect=0;fontColor=#232F3E;fillColor=#C925D1;strokeColor=#ffffff;dashed=1;verticalLabelPosition=bottom;verticalAlign=top;align=center;html=1;fontSize=12;fontStyle=0;aspect=fixed;shape=mxgraph.aws4.resourceIcon;resIcon=mxgraph.aws4.codedeploy;" parent="J-9a75vAs1KpzCj4fgVG-72" vertex="1">
                    <mxGeometry x="210" y="235" width="40" height="40" as="geometry"/>
                </mxCell>
                <mxCell id="J-9a75vAs1KpzCj4fgVG-80" style="edgeStyle=orthogonalEdgeStyle;rounded=0;orthogonalLoop=1;jettySize=auto;html=1;entryX=0;entryY=0.5;entryDx=0;entryDy=0;entryPerimeter=0;" parent="J-9a75vAs1KpzCj4fgVG-72" source="J-9a75vAs1KpzCj4fgVG-7" target="J-9a75vAs1KpzCj4fgVG-6" edge="1">
                    <mxGeometry relative="1" as="geometry"/>
                </mxCell>
                <mxCell id="J-9a75vAs1KpzCj4fgVG-41" value="" style="rounded=0;whiteSpace=wrap;html=1;fillColor=none;strokeColor=#000000;dashed=1;" parent="J-9a75vAs1KpzCj4fgVG-72" vertex="1">
                    <mxGeometry x="420" y="341.75" width="225" height="110" as="geometry"/>
                </mxCell>
                <mxCell id="J-9a75vAs1KpzCj4fgVG-5" value="&lt;b&gt;S3&lt;/b&gt;&lt;div&gt;Midia&lt;/div&gt;" style="sketch=0;points=[[0,0,0],[0.25,0,0],[0.5,0,0],[0.75,0,0],[1,0,0],[0,1,0],[0.25,1,0],[0.5,1,0],[0.75,1,0],[1,1,0],[0,0.25,0],[0,0.5,0],[0,0.75,0],[1,0.25,0],[1,0.5,0],[1,0.75,0]];outlineConnect=0;fontColor=#232F3E;fillColor=#7AA116;strokeColor=#ffffff;dashed=0;verticalLabelPosition=bottom;verticalAlign=top;align=center;html=1;fontSize=12;fontStyle=0;aspect=fixed;shape=mxgraph.aws4.resourceIcon;resIcon=mxgraph.aws4.s3;" parent="J-9a75vAs1KpzCj4fgVG-72" vertex="1">
                    <mxGeometry x="565" y="370" width="40" height="40" as="geometry"/>
                </mxCell>
                <mxCell id="J-9a75vAs1KpzCj4fgVG-4" value="&lt;b&gt;RDS&lt;/b&gt;&lt;div&gt;Tabela de usuÃ¡rios&lt;/div&gt;" style="sketch=0;points=[[0,0,0],[0.25,0,0],[0.5,0,0],[0.75,0,0],[1,0,0],[0,1,0],[0.25,1,0],[0.5,1,0],[0.75,1,0],[1,1,0],[0,0.25,0],[0,0.5,0],[0,0.75,0],[1,0.25,0],[1,0.5,0],[1,0.75,0]];outlineConnect=0;fontColor=#232F3E;fillColor=#C925D1;strokeColor=#ffffff;dashed=0;verticalLabelPosition=bottom;verticalAlign=top;align=center;html=1;fontSize=12;fontStyle=0;aspect=fixed;shape=mxgraph.aws4.resourceIcon;resIcon=mxgraph.aws4.rds;" parent="J-9a75vAs1KpzCj4fgVG-72" vertex="1">
                    <mxGeometry x="465" y="370" width="40" height="40" as="geometry"/>
                </mxCell>
                <mxCell id="J-9a75vAs1KpzCj4fgVG-53" value="Storage WebApp" style="text;html=1;align=center;verticalAlign=middle;resizable=0;points=[];autosize=1;strokeColor=none;fillColor=none;fontStyle=1;dashed=1;" parent="J-9a75vAs1KpzCj4fgVG-72" vertex="1">
                    <mxGeometry x="535" y="340" width="110" height="30" as="geometry"/>
                </mxCell>
                <mxCell id="QDzc27k9Aec-kQCt-gAj-1" value="&lt;font color=&quot;#999999&quot;&gt;Network&lt;/font&gt;" style="points=[[0,0],[0.25,0],[0.5,0],[0.75,0],[1,0],[1,0.25],[1,0.5],[1,0.75],[1,1],[0.75,1],[0.5,1],[0.25,1],[0,1],[0,0.75],[0,0.5],[0,0.25]];outlineConnect=0;gradientColor=none;html=1;whiteSpace=wrap;fontSize=12;fontStyle=0;container=1;pointerEvents=0;collapsible=0;recursiveResize=0;shape=mxgraph.aws4.group;grIcon=mxgraph.aws4.group_vpc2;strokeColor=#8C4FFF;fillColor=none;verticalAlign=top;align=left;spacingLeft=30;fontColor=#AAB7B8;dashed=0;" parent="J-9a75vAs1KpzCj4fgVG-72" vertex="1">
                    <mxGeometry x="720" y="60" width="340" height="360" as="geometry"/>
                </mxCell>
                <mxCell id="QDzc27k9Aec-kQCt-gAj-14" value="Security group" style="fillColor=none;strokeColor=#DD3522;verticalAlign=top;fontStyle=0;fontColor=#DD3522;whiteSpace=wrap;html=1;" parent="QDzc27k9Aec-kQCt-gAj-1" vertex="1">
                    <mxGeometry x="20" y="30" width="260" height="300" as="geometry"/>
                </mxCell>
                <mxCell id="QDzc27k9Aec-kQCt-gAj-12" style="edgeStyle=orthogonalEdgeStyle;rounded=0;orthogonalLoop=1;jettySize=auto;html=1;" parent="QDzc27k9Aec-kQCt-gAj-1" source="QDzc27k9Aec-kQCt-gAj-2" target="QDzc27k9Aec-kQCt-gAj-4" edge="1">
                    <mxGeometry relative="1" as="geometry">
                        <Array as="points">
                            <mxPoint x="302.5" y="170"/>
                        </Array>
                    </mxGeometry>
                </mxCell>
                <mxCell id="QDzc27k9Aec-kQCt-gAj-13" style="edgeStyle=orthogonalEdgeStyle;rounded=0;orthogonalLoop=1;jettySize=auto;html=1;" parent="QDzc27k9Aec-kQCt-gAj-1" source="QDzc27k9Aec-kQCt-gAj-2" target="QDzc27k9Aec-kQCt-gAj-5" edge="1">
                    <mxGeometry relative="1" as="geometry">
                        <Array as="points">
                            <mxPoint x="302.5" y="270"/>
                        </Array>
                    </mxGeometry>
                </mxCell>
                <mxCell id="QDzc27k9Aec-kQCt-gAj-4" value="Subnet us-east-1a" style="sketch=0;outlineConnect=0;gradientColor=none;html=1;whiteSpace=wrap;fontSize=12;fontStyle=0;shape=mxgraph.aws4.group;grIcon=mxgraph.aws4.group_subnet;strokeColor=#879196;fillColor=none;verticalAlign=top;align=left;spacingLeft=30;fontColor=#879196;dashed=0;" parent="QDzc27k9Aec-kQCt-gAj-1" vertex="1">
                    <mxGeometry x="57.5" y="130" width="190" height="70" as="geometry"/>
                </mxCell>
                <mxCell id="QDzc27k9Aec-kQCt-gAj-5" value="Subnet us-east-1b" style="sketch=0;outlineConnect=0;gradientColor=none;html=1;whiteSpace=wrap;fontSize=12;fontStyle=0;shape=mxgraph.aws4.group;grIcon=mxgraph.aws4.group_subnet;strokeColor=#879196;fillColor=none;verticalAlign=top;align=left;spacingLeft=30;fontColor=#879196;dashed=0;" parent="QDzc27k9Aec-kQCt-gAj-1" vertex="1">
                    <mxGeometry x="57.5" y="220" width="190" height="80" as="geometry"/>
                </mxCell>
                <mxCell id="QDzc27k9Aec-kQCt-gAj-8" value="&lt;div&gt;&lt;span style=&quot;white-space-collapse: preserve; white-space-collapse: collapse;&quot;&gt;&#9;&lt;/span&gt;&lt;/div&gt;&lt;div&gt;10.0.0.0/16 (pub)&lt;/div&gt;" style="text;html=1;align=center;verticalAlign=middle;resizable=0;points=[];autosize=1;strokeColor=none;fillColor=none;" parent="QDzc27k9Aec-kQCt-gAj-1" vertex="1">
                    <mxGeometry x="92.5" y="245" width="110" height="30" as="geometry"/>
                </mxCell>
                <mxCell id="QDzc27k9Aec-kQCt-gAj-7" value="&lt;div&gt;&lt;span style=&quot;white-space-collapse: preserve; white-space-collapse: collapse;&quot;&gt;&#9;&lt;/span&gt;&lt;/div&gt;&lt;div&gt;10.0.1.0/16 (priv)&lt;/div&gt;" style="text;html=1;align=center;verticalAlign=middle;resizable=0;points=[];autosize=1;strokeColor=none;fillColor=none;" parent="QDzc27k9Aec-kQCt-gAj-1" vertex="1">
                    <mxGeometry x="92.5" y="270" width="110" height="30" as="geometry"/>
                </mxCell>
                <mxCell id="QDzc27k9Aec-kQCt-gAj-6" value="&lt;div&gt;&lt;span style=&quot;white-space-collapse: preserve; white-space-collapse: collapse;&quot;&gt;&#9;&lt;/span&gt;&lt;/div&gt;&lt;div&gt;10.0.2.0/16 (pub)&lt;/div&gt;" style="text;html=1;align=center;verticalAlign=middle;resizable=0;points=[];autosize=1;strokeColor=none;fillColor=none;" parent="QDzc27k9Aec-kQCt-gAj-1" vertex="1">
                    <mxGeometry x="92.5" y="155" width="110" height="30" as="geometry"/>
                </mxCell>
                <mxCell id="QDzc27k9Aec-kQCt-gAj-9" value="&lt;div&gt;&lt;span style=&quot;white-space-collapse: preserve; white-space-collapse: collapse;&quot;&gt;&#9;&lt;/span&gt;&lt;/div&gt;&lt;div&gt;10.0.3.0/16 (priv)&lt;/div&gt;" style="text;html=1;align=center;verticalAlign=middle;resizable=0;points=[];autosize=1;strokeColor=none;fillColor=none;" parent="QDzc27k9Aec-kQCt-gAj-1" vertex="1">
                    <mxGeometry x="95" y="170" width="110" height="30" as="geometry"/>
                </mxCell>
                <mxCell id="QDzc27k9Aec-kQCt-gAj-15" value="&lt;div&gt;&lt;span style=&quot;background-color: initial;&quot;&gt;&lt;b&gt;Inbound&lt;/b&gt;&lt;br&gt;IPv4 |&amp;nbsp;&lt;/span&gt;&lt;span style=&quot;background-color: initial;&quot;&gt;HTTP |&amp;nbsp;&lt;/span&gt;&lt;span style=&quot;background-color: initial;&quot;&gt;TCP |&amp;nbsp;&lt;/span&gt;&lt;span style=&quot;background-color: initial;&quot;&gt;80 |&amp;nbsp;&lt;/span&gt;&lt;span style=&quot;background-color: initial;&quot;&gt;0.0.0.0/0&lt;/span&gt;&lt;/div&gt;" style="text;html=1;align=center;verticalAlign=middle;resizable=0;points=[];autosize=1;strokeColor=none;" parent="QDzc27k9Aec-kQCt-gAj-1" vertex="1">
                    <mxGeometry x="47.5" y="50" width="200" height="40" as="geometry"/>
                </mxCell>
                <mxCell id="QDzc27k9Aec-kQCt-gAj-16" value="&lt;span style=&quot;background-color: initial;&quot;&gt;&lt;b&gt;Outbound&lt;br&gt;&lt;/b&gt;&lt;/span&gt;&lt;span style=&quot;background-color: initial;&quot;&gt;IPv4 |&amp;nbsp;&lt;/span&gt;&lt;span style=&quot;background-color: initial;&quot;&gt;Todo o trÃ¡fego |&amp;nbsp;&lt;/span&gt;&lt;span style=&quot;background-color: initial;&quot;&gt;Tudo |&amp;nbsp;&lt;/span&gt;&lt;span style=&quot;background-color: initial;&quot;&gt;Tudo |&amp;nbsp;&lt;/span&gt;&lt;span style=&quot;background-color: initial;&quot;&gt;0.0.0.0/0&lt;/span&gt;&lt;span style=&quot;background-color: initial;&quot;&gt;&lt;br&gt;&lt;/span&gt;" style="text;html=1;align=center;verticalAlign=middle;resizable=0;points=[];autosize=1;strokeColor=none;" parent="QDzc27k9Aec-kQCt-gAj-1" vertex="1">
                    <mxGeometry x="17.5" y="85" width="260" height="40" as="geometry"/>
                </mxCell>
                <mxCell id="QDzc27k9Aec-kQCt-gAj-2" value="" style="sketch=0;outlineConnect=0;fontColor=#232F3E;gradientColor=none;fillColor=#8C4FFF;strokeColor=none;dashed=0;verticalLabelPosition=bottom;verticalAlign=top;align=center;html=1;fontSize=12;fontStyle=0;aspect=fixed;pointerEvents=1;shape=mxgraph.aws4.nat_gateway;" parent="QDzc27k9Aec-kQCt-gAj-1" vertex="1">
                    <mxGeometry x="272.5" y="190" width="60" height="60" as="geometry"/>
                </mxCell>
                <mxCell id="J-9a75vAs1KpzCj4fgVG-76" style="edgeStyle=orthogonalEdgeStyle;rounded=0;orthogonalLoop=1;jettySize=auto;html=1;entryX=0.5;entryY=0;entryDx=0;entryDy=0;entryPerimeter=0;" parent="1" target="J-9a75vAs1KpzCj4fgVG-3" edge="1">
                    <mxGeometry relative="1" as="geometry">
                        <Array as="points">
                            <mxPoint x="495" y="40"/>
                            <mxPoint x="495" y="40"/>
                        </Array>
                        <mxPoint x="495" y="25" as="sourcePoint"/>
                    </mxGeometry>
                </mxCell>
                <mxCell id="J-9a75vAs1KpzCj4fgVG-79" style="edgeStyle=orthogonalEdgeStyle;rounded=0;orthogonalLoop=1;jettySize=auto;html=1;entryX=0;entryY=0.5;entryDx=0;entryDy=0;entryPerimeter=0;" parent="1" source="J-9a75vAs1KpzCj4fgVG-7" target="J-9a75vAs1KpzCj4fgVG-27" edge="1">
                    <mxGeometry relative="1" as="geometry">
                        <Array as="points">
                            <mxPoint x="80" y="245"/>
                        </Array>
                    </mxGeometry>
                </mxCell>
                <mxCell id="J-9a75vAs1KpzCj4fgVG-81" style="edgeStyle=orthogonalEdgeStyle;rounded=0;orthogonalLoop=1;jettySize=auto;html=1;" parent="1" source="J-9a75vAs1KpzCj4fgVG-6" target="J-9a75vAs1KpzCj4fgVG-40" edge="1">
                    <mxGeometry relative="1" as="geometry">
                        <Array as="points">
                            <mxPoint x="270" y="325"/>
                            <mxPoint x="270" y="325"/>
                        </Array>
                    </mxGeometry>
                </mxCell>
                <mxCell id="3DKWgWjuuDe_Gml-Rlel-1" value="Nova versÃ£o" style="edgeLabel;html=1;align=center;verticalAlign=middle;resizable=0;points=[];" parent="J-9a75vAs1KpzCj4fgVG-81" vertex="1" connectable="0">
                    <mxGeometry x="-0.0308" y="1" relative="1" as="geometry">
                        <mxPoint as="offset"/>
                    </mxGeometry>
                </mxCell>
                <mxCell id="J-9a75vAs1KpzCj4fgVG-82" style="edgeStyle=orthogonalEdgeStyle;rounded=0;orthogonalLoop=1;jettySize=auto;html=1;entryX=0.5;entryY=0;entryDx=0;entryDy=0;entryPerimeter=0;" parent="1" source="J-9a75vAs1KpzCj4fgVG-3" target="J-9a75vAs1KpzCj4fgVG-2" edge="1">
                    <mxGeometry relative="1" as="geometry"/>
                </mxCell>
                <mxCell id="J-9a75vAs1KpzCj4fgVG-83" style="edgeStyle=orthogonalEdgeStyle;rounded=0;orthogonalLoop=1;jettySize=auto;html=1;entryX=0.5;entryY=0;entryDx=0;entryDy=0;entryPerimeter=0;" parent="1" source="J-9a75vAs1KpzCj4fgVG-2" target="J-9a75vAs1KpzCj4fgVG-17" edge="1">
                    <mxGeometry relative="1" as="geometry"/>
                </mxCell>
                <mxCell id="QDzc27k9Aec-kQCt-gAj-17" value="Cliente" style="image;points=[];aspect=fixed;html=1;align=center;shadow=0;dashed=0;image=img/lib/allied_telesis/computer_and_terminals/Personal_Computer.svg;" parent="1" vertex="1">
                    <mxGeometry x="474.15" y="-50" width="45.6" height="61.800000000000004" as="geometry"/>
                </mxCell>
            </root>
        </mxGraphModel>
    </diagram>
    <diagram id="6n7TF2dVwHVosYp3CK9A" name="Fase 2">
        <mxGraphModel dx="1797" dy="1881" grid="1" gridSize="10" guides="1" tooltips="1" connect="1" arrows="1" fold="1" page="1" pageScale="1" pageWidth="827" pageHeight="1169" math="0" shadow="0">
            <root>
                <mxCell id="0"/>
                <mxCell id="1" parent="0"/>
                <mxCell id="GGuRKsYAGu5N2Q_C-kRw-7" style="edgeStyle=orthogonalEdgeStyle;rounded=0;orthogonalLoop=1;jettySize=auto;html=1;entryX=0.5;entryY=0;entryDx=0;entryDy=0;entryPerimeter=0;" parent="1" source="wCBR-sV3WrU25N1I4WDX-43" target="wCBR-sV3WrU25N1I4WDX-3" edge="1">
                    <mxGeometry relative="1" as="geometry"/>
                </mxCell>
                <mxCell id="wCBR-sV3WrU25N1I4WDX-13" value="AWS Account" style="points=[[0,0],[0.25,0],[0.5,0],[0.75,0],[1,0],[1,0.25],[1,0.5],[1,0.75],[1,1],[0.75,1],[0.5,1],[0.25,1],[0,1],[0,0.75],[0,0.5],[0,0.25]];outlineConnect=0;gradientColor=none;html=1;whiteSpace=wrap;fontSize=12;fontStyle=0;container=1;pointerEvents=0;collapsible=0;recursiveResize=0;shape=mxgraph.aws4.group;grIcon=mxgraph.aws4.group_account;strokeColor=#CD2264;fillColor=none;verticalAlign=top;align=left;spacingLeft=30;fontColor=#CD2264;dashed=0;" parent="1" vertex="1">
                    <mxGeometry x="-30" y="70" width="1230" height="570" as="geometry"/>
                </mxCell>
                <mxCell id="wCBR-sV3WrU25N1I4WDX-49" value="" style="rounded=0;whiteSpace=wrap;html=1;fillColor=none;dashed=1;" parent="wCBR-sV3WrU25N1I4WDX-13" vertex="1">
                    <mxGeometry x="160" y="80" width="1030" height="445" as="geometry"/>
                </mxCell>
                <mxCell id="wCBR-sV3WrU25N1I4WDX-14" style="edgeStyle=orthogonalEdgeStyle;rounded=0;orthogonalLoop=1;jettySize=auto;html=1;dashed=1;" parent="wCBR-sV3WrU25N1I4WDX-13" source="wCBR-sV3WrU25N1I4WDX-15" target="wCBR-sV3WrU25N1I4WDX-33" edge="1">
                    <mxGeometry relative="1" as="geometry">
                        <Array as="points">
                            <mxPoint x="855" y="280"/>
                            <mxPoint x="855" y="280"/>
                        </Array>
                    </mxGeometry>
                </mxCell>
                <mxCell id="wCBR-sV3WrU25N1I4WDX-15" value="&lt;div&gt;&lt;b&gt;WebApp&lt;/b&gt;&lt;/div&gt;&lt;div&gt;us-east-1b&lt;/div&gt;" style="sketch=0;points=[[0,0,0],[0.25,0,0],[0.5,0,0],[0.75,0,0],[1,0,0],[0,1,0],[0.25,1,0],[0.5,1,0],[0.75,1,0],[1,1,0],[0,0.25,0],[0,0.5,0],[0,0.75,0],[1,0.25,0],[1,0.5,0],[1,0.75,0]];outlineConnect=0;fontColor=#232F3E;fillColor=#ED7100;strokeColor=#ffffff;dashed=1;verticalLabelPosition=bottom;verticalAlign=top;align=center;html=1;fontSize=12;fontStyle=0;aspect=fixed;shape=mxgraph.aws4.resourceIcon;resIcon=mxgraph.aws4.ec2;" parent="wCBR-sV3WrU25N1I4WDX-13" vertex="1">
                    <mxGeometry x="685" y="240" width="40" height="40" as="geometry"/>
                </mxCell>
                <mxCell id="wCBR-sV3WrU25N1I4WDX-16" style="edgeStyle=orthogonalEdgeStyle;rounded=0;orthogonalLoop=1;jettySize=auto;html=1;dashed=1;entryX=-0.006;entryY=0.506;entryDx=0;entryDy=0;entryPerimeter=0;" parent="wCBR-sV3WrU25N1I4WDX-13" source="wCBR-sV3WrU25N1I4WDX-17" target="wCBR-sV3WrU25N1I4WDX-31" edge="1">
                    <mxGeometry relative="1" as="geometry">
                        <Array as="points">
                            <mxPoint x="555" y="370"/>
                        </Array>
                    </mxGeometry>
                </mxCell>
                <mxCell id="wCBR-sV3WrU25N1I4WDX-17" value="&lt;div&gt;&lt;b&gt;WebApp&lt;/b&gt;&lt;/div&gt;&lt;div&gt;us-east-1a&lt;/div&gt;" style="sketch=0;points=[[0,0,0],[0.25,0,0],[0.5,0,0],[0.75,0,0],[1,0,0],[0,1,0],[0.25,1,0],[0.5,1,0],[0.75,1,0],[1,1,0],[0,0.25,0],[0,0.5,0],[0,0.75,0],[1,0.25,0],[1,0.5,0],[1,0.75,0]];outlineConnect=0;fontColor=#232F3E;fillColor=#ED7100;strokeColor=#ffffff;dashed=1;verticalLabelPosition=bottom;verticalAlign=top;align=center;html=1;fontSize=12;fontStyle=0;aspect=fixed;shape=mxgraph.aws4.resourceIcon;resIcon=mxgraph.aws4.ec2;" parent="wCBR-sV3WrU25N1I4WDX-13" vertex="1">
                    <mxGeometry x="535" y="240" width="40" height="40" as="geometry"/>
                </mxCell>
                <mxCell id="wCBR-sV3WrU25N1I4WDX-21" value="" style="rounded=0;whiteSpace=wrap;html=1;fillColor=none;strokeColor=#000000;dashed=1;" parent="wCBR-sV3WrU25N1I4WDX-13" vertex="1">
                    <mxGeometry x="530" y="381.75" width="225" height="110" as="geometry"/>
                </mxCell>
                <mxCell id="wCBR-sV3WrU25N1I4WDX-22" value="&lt;b&gt;S3&lt;/b&gt;&lt;div&gt;Midia&lt;/div&gt;" style="sketch=0;points=[[0,0,0],[0.25,0,0],[0.5,0,0],[0.75,0,0],[1,0,0],[0,1,0],[0.25,1,0],[0.5,1,0],[0.75,1,0],[1,1,0],[0,0.25,0],[0,0.5,0],[0,0.75,0],[1,0.25,0],[1,0.5,0],[1,0.75,0]];outlineConnect=0;fontColor=#232F3E;fillColor=#7AA116;strokeColor=#ffffff;dashed=0;verticalLabelPosition=bottom;verticalAlign=top;align=center;html=1;fontSize=12;fontStyle=0;aspect=fixed;shape=mxgraph.aws4.resourceIcon;resIcon=mxgraph.aws4.s3;" parent="wCBR-sV3WrU25N1I4WDX-13" vertex="1">
                    <mxGeometry x="675" y="410" width="40" height="40" as="geometry"/>
                </mxCell>
                <mxCell id="wCBR-sV3WrU25N1I4WDX-23" value="&lt;b&gt;RDS&lt;/b&gt;&lt;div&gt;Tabela de usuÃ¡rios&lt;/div&gt;" style="sketch=0;points=[[0,0,0],[0.25,0,0],[0.5,0,0],[0.75,0,0],[1,0,0],[0,1,0],[0.25,1,0],[0.5,1,0],[0.75,1,0],[1,1,0],[0,0.25,0],[0,0.5,0],[0,0.75,0],[1,0.25,0],[1,0.5,0],[1,0.75,0]];outlineConnect=0;fontColor=#232F3E;fillColor=#C925D1;strokeColor=#ffffff;dashed=0;verticalLabelPosition=bottom;verticalAlign=top;align=center;html=1;fontSize=12;fontStyle=0;aspect=fixed;shape=mxgraph.aws4.resourceIcon;resIcon=mxgraph.aws4.rds;" parent="wCBR-sV3WrU25N1I4WDX-13" vertex="1">
                    <mxGeometry x="575" y="410" width="40" height="40" as="geometry"/>
                </mxCell>
                <mxCell id="wCBR-sV3WrU25N1I4WDX-24" value="Storage WebApp" style="text;html=1;align=center;verticalAlign=middle;resizable=0;points=[];autosize=1;strokeColor=none;fillColor=none;fontStyle=1;dashed=1;" parent="wCBR-sV3WrU25N1I4WDX-13" vertex="1">
                    <mxGeometry x="645" y="380" width="110" height="30" as="geometry"/>
                </mxCell>
                <mxCell id="wCBR-sV3WrU25N1I4WDX-25" value="&lt;font color=&quot;#999999&quot;&gt;Network VPC&lt;/font&gt;" style="points=[[0,0],[0.25,0],[0.5,0],[0.75,0],[1,0],[1,0.25],[1,0.5],[1,0.75],[1,1],[0.75,1],[0.5,1],[0.25,1],[0,1],[0,0.75],[0,0.5],[0,0.25]];outlineConnect=0;gradientColor=none;html=1;whiteSpace=wrap;fontSize=12;fontStyle=0;container=1;pointerEvents=0;collapsible=0;recursiveResize=0;shape=mxgraph.aws4.group;grIcon=mxgraph.aws4.group_vpc2;strokeColor=#8C4FFF;fillColor=none;verticalAlign=top;align=left;spacingLeft=30;fontColor=#AAB7B8;dashed=0;" parent="wCBR-sV3WrU25N1I4WDX-13" vertex="1">
                    <mxGeometry x="825" y="110" width="340" height="360" as="geometry"/>
                </mxCell>
                <mxCell id="wCBR-sV3WrU25N1I4WDX-26" value="Security group" style="fillColor=none;strokeColor=#DD3522;verticalAlign=top;fontStyle=0;fontColor=#DD3522;whiteSpace=wrap;html=1;" parent="wCBR-sV3WrU25N1I4WDX-25" vertex="1">
                    <mxGeometry x="20" y="30" width="260" height="300" as="geometry"/>
                </mxCell>
                <mxCell id="wCBR-sV3WrU25N1I4WDX-27" style="edgeStyle=orthogonalEdgeStyle;rounded=0;orthogonalLoop=1;jettySize=auto;html=1;" parent="wCBR-sV3WrU25N1I4WDX-25" source="wCBR-sV3WrU25N1I4WDX-37" target="wCBR-sV3WrU25N1I4WDX-29" edge="1">
                    <mxGeometry relative="1" as="geometry">
                        <Array as="points">
                            <mxPoint x="302.5" y="170"/>
                        </Array>
                    </mxGeometry>
                </mxCell>
                <mxCell id="wCBR-sV3WrU25N1I4WDX-28" style="edgeStyle=orthogonalEdgeStyle;rounded=0;orthogonalLoop=1;jettySize=auto;html=1;" parent="wCBR-sV3WrU25N1I4WDX-25" source="wCBR-sV3WrU25N1I4WDX-37" target="wCBR-sV3WrU25N1I4WDX-30" edge="1">
                    <mxGeometry relative="1" as="geometry">
                        <Array as="points">
                            <mxPoint x="302.5" y="270"/>
                        </Array>
                    </mxGeometry>
                </mxCell>
                <mxCell id="wCBR-sV3WrU25N1I4WDX-29" value="Subnet us-east-1a" style="sketch=0;outlineConnect=0;gradientColor=none;html=1;whiteSpace=wrap;fontSize=12;fontStyle=0;shape=mxgraph.aws4.group;grIcon=mxgraph.aws4.group_subnet;strokeColor=#879196;fillColor=none;verticalAlign=top;align=left;spacingLeft=30;fontColor=#879196;dashed=0;" parent="wCBR-sV3WrU25N1I4WDX-25" vertex="1">
                    <mxGeometry x="57.5" y="130" width="190" height="70" as="geometry"/>
                </mxCell>
                <mxCell id="wCBR-sV3WrU25N1I4WDX-30" value="Subnet us-east-1b" style="sketch=0;outlineConnect=0;gradientColor=none;html=1;whiteSpace=wrap;fontSize=12;fontStyle=0;shape=mxgraph.aws4.group;grIcon=mxgraph.aws4.group_subnet;strokeColor=#879196;fillColor=none;verticalAlign=top;align=left;spacingLeft=30;fontColor=#879196;dashed=0;" parent="wCBR-sV3WrU25N1I4WDX-25" vertex="1">
                    <mxGeometry x="57.5" y="220" width="190" height="80" as="geometry"/>
                </mxCell>
                <mxCell id="wCBR-sV3WrU25N1I4WDX-31" value="&lt;div&gt;&lt;span style=&quot;white-space-collapse: preserve; white-space-collapse: collapse;&quot;&gt;&#9;&lt;/span&gt;&lt;/div&gt;&lt;div&gt;10.0.0.0/16 (pub)&lt;/div&gt;" style="text;html=1;align=center;verticalAlign=middle;resizable=0;points=[];autosize=1;strokeColor=none;fillColor=none;" parent="wCBR-sV3WrU25N1I4WDX-25" vertex="1">
                    <mxGeometry x="92.5" y="245" width="110" height="30" as="geometry"/>
                </mxCell>
                <mxCell id="wCBR-sV3WrU25N1I4WDX-32" value="&lt;div&gt;&lt;span style=&quot;white-space-collapse: preserve; white-space-collapse: collapse;&quot;&gt;&#9;&lt;/span&gt;&lt;/div&gt;&lt;div&gt;10.0.1.0/16 (priv)&lt;/div&gt;" style="text;html=1;align=center;verticalAlign=middle;resizable=0;points=[];autosize=1;strokeColor=none;fillColor=none;" parent="wCBR-sV3WrU25N1I4WDX-25" vertex="1">
                    <mxGeometry x="92.5" y="270" width="110" height="30" as="geometry"/>
                </mxCell>
                <mxCell id="wCBR-sV3WrU25N1I4WDX-33" value="&lt;div&gt;&lt;span style=&quot;white-space-collapse: preserve; white-space-collapse: collapse;&quot;&gt;&#9;&lt;/span&gt;&lt;/div&gt;&lt;div&gt;10.0.2.0/16 (pub)&lt;/div&gt;" style="text;html=1;align=center;verticalAlign=middle;resizable=0;points=[];autosize=1;strokeColor=none;fillColor=none;" parent="wCBR-sV3WrU25N1I4WDX-25" vertex="1">
                    <mxGeometry x="92.5" y="155" width="110" height="30" as="geometry"/>
                </mxCell>
                <mxCell id="wCBR-sV3WrU25N1I4WDX-34" value="&lt;div&gt;&lt;span style=&quot;white-space-collapse: preserve; white-space-collapse: collapse;&quot;&gt;&#9;&lt;/span&gt;&lt;/div&gt;&lt;div&gt;10.0.3.0/16 (priv)&lt;/div&gt;" style="text;html=1;align=center;verticalAlign=middle;resizable=0;points=[];autosize=1;strokeColor=none;fillColor=none;" parent="wCBR-sV3WrU25N1I4WDX-25" vertex="1">
                    <mxGeometry x="95" y="170" width="110" height="30" as="geometry"/>
                </mxCell>
                <mxCell id="wCBR-sV3WrU25N1I4WDX-35" value="&lt;div&gt;&lt;span style=&quot;background-color: initial;&quot;&gt;&lt;b&gt;Inbound&lt;/b&gt;&lt;br&gt;IPv4 |&amp;nbsp;&lt;/span&gt;&lt;span style=&quot;background-color: initial;&quot;&gt;HTTP |&amp;nbsp;&lt;/span&gt;&lt;span style=&quot;background-color: initial;&quot;&gt;TCP |&amp;nbsp;&lt;/span&gt;&lt;span style=&quot;background-color: initial;&quot;&gt;80 |&amp;nbsp;&lt;/span&gt;&lt;span style=&quot;background-color: initial;&quot;&gt;0.0.0.0/0&lt;/span&gt;&lt;/div&gt;" style="text;html=1;align=center;verticalAlign=middle;resizable=0;points=[];autosize=1;strokeColor=none;" parent="wCBR-sV3WrU25N1I4WDX-25" vertex="1">
                    <mxGeometry x="47.5" y="50" width="200" height="40" as="geometry"/>
                </mxCell>
                <mxCell id="wCBR-sV3WrU25N1I4WDX-36" value="&lt;span style=&quot;background-color: initial;&quot;&gt;&lt;b&gt;Outbound&lt;br&gt;&lt;/b&gt;&lt;/span&gt;&lt;span style=&quot;background-color: initial;&quot;&gt;IPv4 |&amp;nbsp;&lt;/span&gt;&lt;span style=&quot;background-color: initial;&quot;&gt;Todo o trÃ¡fego |&amp;nbsp;&lt;/span&gt;&lt;span style=&quot;background-color: initial;&quot;&gt;Tudo |&amp;nbsp;&lt;/span&gt;&lt;span style=&quot;background-color: initial;&quot;&gt;Tudo |&amp;nbsp;&lt;/span&gt;&lt;span style=&quot;background-color: initial;&quot;&gt;0.0.0.0/0&lt;/span&gt;&lt;span style=&quot;background-color: initial;&quot;&gt;&lt;br&gt;&lt;/span&gt;" style="text;html=1;align=center;verticalAlign=middle;resizable=0;points=[];autosize=1;strokeColor=none;rounded=0;" parent="wCBR-sV3WrU25N1I4WDX-25" vertex="1">
                    <mxGeometry x="17.5" y="85" width="260" height="40" as="geometry"/>
                </mxCell>
                <mxCell id="wCBR-sV3WrU25N1I4WDX-37" value="" style="sketch=0;outlineConnect=0;fontColor=#232F3E;gradientColor=none;fillColor=#8C4FFF;strokeColor=none;dashed=0;verticalLabelPosition=bottom;verticalAlign=top;align=center;html=1;fontSize=12;fontStyle=0;aspect=fixed;pointerEvents=1;shape=mxgraph.aws4.nat_gateway;" parent="wCBR-sV3WrU25N1I4WDX-25" vertex="1">
                    <mxGeometry x="272.5" y="190" width="60" height="60" as="geometry"/>
                </mxCell>
                <mxCell id="wCBR-sV3WrU25N1I4WDX-44" value="&lt;b&gt;Cloudformation&lt;/b&gt;" style="sketch=0;points=[[0,0,0],[0.25,0,0],[0.5,0,0],[0.75,0,0],[1,0,0],[0,1,0],[0.25,1,0],[0.5,1,0],[0.75,1,0],[1,1,0],[0,0.25,0],[0,0.5,0],[0,0.75,0],[1,0.25,0],[1,0.5,0],[1,0.75,0]];points=[[0,0,0],[0.25,0,0],[0.5,0,0],[0.75,0,0],[1,0,0],[0,1,0],[0.25,1,0],[0.5,1,0],[0.75,1,0],[1,1,0],[0,0.25,0],[0,0.5,0],[0,0.75,0],[1,0.25,0],[1,0.5,0],[1,0.75,0]];outlineConnect=0;fontColor=#232F3E;fillColor=#E7157B;strokeColor=#ffffff;dashed=0;verticalLabelPosition=bottom;verticalAlign=top;align=center;html=1;fontSize=12;fontStyle=0;aspect=fixed;shape=mxgraph.aws4.resourceIcon;resIcon=mxgraph.aws4.cloudformation;" parent="wCBR-sV3WrU25N1I4WDX-13" vertex="1">
                    <mxGeometry x="40" y="260" width="59" height="59" as="geometry"/>
                </mxCell>
                <mxCell id="wCBR-sV3WrU25N1I4WDX-1" value="" style="rounded=0;whiteSpace=wrap;html=1;fillColor=none;strokeColor=#A680B8;" parent="wCBR-sV3WrU25N1I4WDX-13" vertex="1">
                    <mxGeometry x="200" y="135" width="220" height="335" as="geometry"/>
                </mxCell>
                <mxCell id="wCBR-sV3WrU25N1I4WDX-4" value="&lt;b&gt;S3&lt;/b&gt;&lt;div&gt;Application Version&lt;/div&gt;" style="sketch=0;points=[[0,0,0],[0.25,0,0],[0.5,0,0],[0.75,0,0],[1,0,0],[0,1,0],[0.25,1,0],[0.5,1,0],[0.75,1,0],[1,1,0],[0,0.25,0],[0,0.5,0],[0,0.75,0],[1,0.25,0],[1,0.5,0],[1,0.75,0]];outlineConnect=0;fontColor=#232F3E;fillColor=#7AA116;strokeColor=#ffffff;dashed=0;verticalLabelPosition=bottom;verticalAlign=top;align=center;html=1;fontSize=12;fontStyle=0;aspect=fixed;shape=mxgraph.aws4.resourceIcon;resIcon=mxgraph.aws4.s3;" parent="wCBR-sV3WrU25N1I4WDX-13" vertex="1">
                    <mxGeometry x="290" y="175" width="40" height="40" as="geometry"/>
                </mxCell>
                <mxCell id="wCBR-sV3WrU25N1I4WDX-8" value="&lt;b&gt;&lt;font color=&quot;#999999&quot;&gt;Versionamento&lt;/font&gt;&lt;/b&gt;" style="text;html=1;align=center;verticalAlign=middle;resizable=0;points=[];autosize=1;strokeColor=none;fillColor=none;" parent="wCBR-sV3WrU25N1I4WDX-13" vertex="1">
                    <mxGeometry x="310" y="135" width="110" height="30" as="geometry"/>
                </mxCell>
                <mxCell id="wCBR-sV3WrU25N1I4WDX-18" value="&lt;b&gt;CodePipeline&lt;/b&gt;&lt;div&gt;&lt;br&gt;&lt;/div&gt;" style="sketch=0;points=[[0,0,0],[0.25,0,0],[0.5,0,0],[0.75,0,0],[1,0,0],[0,1,0],[0.25,1,0],[0.5,1,0],[0.75,1,0],[1,1,0],[0,0.25,0],[0,0.5,0],[0,0.75,0],[1,0.25,0],[1,0.5,0],[1,0.75,0]];outlineConnect=0;fontColor=#232F3E;fillColor=#C925D1;strokeColor=#ffffff;dashed=1;verticalLabelPosition=bottom;verticalAlign=top;align=center;html=1;fontSize=12;fontStyle=0;aspect=fixed;shape=mxgraph.aws4.resourceIcon;resIcon=mxgraph.aws4.codepipeline;" parent="wCBR-sV3WrU25N1I4WDX-13" vertex="1">
                    <mxGeometry x="290" y="279" width="40" height="40" as="geometry"/>
                </mxCell>
                <mxCell id="wCBR-sV3WrU25N1I4WDX-19" value="&lt;b&gt;CodeDeploy&lt;/b&gt;" style="sketch=0;points=[[0,0,0],[0.25,0,0],[0.5,0,0],[0.75,0,0],[1,0,0],[0,1,0],[0.25,1,0],[0.5,1,0],[0.75,1,0],[1,1,0],[0,0.25,0],[0,0.5,0],[0,0.75,0],[1,0.25,0],[1,0.5,0],[1,0.75,0]];outlineConnect=0;fontColor=#232F3E;fillColor=#C925D1;strokeColor=#ffffff;dashed=1;verticalLabelPosition=bottom;verticalAlign=top;align=center;html=1;fontSize=12;fontStyle=0;aspect=fixed;shape=mxgraph.aws4.resourceIcon;resIcon=mxgraph.aws4.codedeploy;" parent="wCBR-sV3WrU25N1I4WDX-13" vertex="1">
                    <mxGeometry x="290" y="380" width="40" height="40" as="geometry"/>
                </mxCell>
                <mxCell id="wCBR-sV3WrU25N1I4WDX-47" style="edgeStyle=orthogonalEdgeStyle;rounded=0;orthogonalLoop=1;jettySize=auto;html=1;entryX=0.5;entryY=0;entryDx=0;entryDy=0;entryPerimeter=0;" parent="wCBR-sV3WrU25N1I4WDX-13" source="wCBR-sV3WrU25N1I4WDX-18" target="wCBR-sV3WrU25N1I4WDX-19" edge="1">
                    <mxGeometry relative="1" as="geometry"/>
                </mxCell>
                <mxCell id="wCBR-sV3WrU25N1I4WDX-46" style="edgeStyle=orthogonalEdgeStyle;rounded=0;orthogonalLoop=1;jettySize=auto;html=1;" parent="wCBR-sV3WrU25N1I4WDX-13" source="wCBR-sV3WrU25N1I4WDX-18" edge="1">
                    <mxGeometry relative="1" as="geometry">
                        <mxPoint x="310" y="250" as="targetPoint"/>
                    </mxGeometry>
                </mxCell>
                <mxCell id="wCBR-sV3WrU25N1I4WDX-50" style="edgeStyle=orthogonalEdgeStyle;rounded=0;orthogonalLoop=1;jettySize=auto;html=1;entryX=0;entryY=0.47;entryDx=0;entryDy=0;entryPerimeter=0;" parent="wCBR-sV3WrU25N1I4WDX-13" source="wCBR-sV3WrU25N1I4WDX-44" target="wCBR-sV3WrU25N1I4WDX-49" edge="1">
                    <mxGeometry relative="1" as="geometry"/>
                </mxCell>
                <mxCell id="wCBR-sV3WrU25N1I4WDX-2" value="" style="rounded=0;whiteSpace=wrap;html=1;fillColor=none;strokeColor=#FF8000;" parent="wCBR-sV3WrU25N1I4WDX-13" vertex="1">
                    <mxGeometry x="485" y="110" width="300" height="400" as="geometry"/>
                </mxCell>
                <mxCell id="wCBR-sV3WrU25N1I4WDX-3" value="&lt;b&gt;ALB&lt;/b&gt;" style="outlineConnect=0;dashed=1;verticalLabelPosition=bottom;verticalAlign=top;align=center;html=1;shape=mxgraph.aws3.application_load_balancer;fillColor=#F58534;gradientColor=none;direction=east;" parent="wCBR-sV3WrU25N1I4WDX-13" vertex="1">
                    <mxGeometry x="605.25" y="90.25" width="49.5" height="50" as="geometry"/>
                </mxCell>
                <mxCell id="wCBR-sV3WrU25N1I4WDX-5" style="edgeStyle=orthogonalEdgeStyle;rounded=0;orthogonalLoop=1;jettySize=auto;html=1;" parent="wCBR-sV3WrU25N1I4WDX-13" source="wCBR-sV3WrU25N1I4WDX-6" target="wCBR-sV3WrU25N1I4WDX-15" edge="1">
                    <mxGeometry relative="1" as="geometry"/>
                </mxCell>
                <mxCell id="wCBR-sV3WrU25N1I4WDX-6" value="&lt;b&gt;AutoScalling&lt;/b&gt;" style="sketch=0;points=[[0,0,0],[0.25,0,0],[0.5,0,0],[0.75,0,0],[1,0,0],[0,1,0],[0.25,1,0],[0.5,1,0],[0.75,1,0],[1,1,0],[0,0.25,0],[0,0.5,0],[0,0.75,0],[1,0.25,0],[1,0.5,0],[1,0.75,0]];outlineConnect=0;fontColor=#232F3E;fillColor=#ED7100;strokeColor=#ffffff;verticalLabelPosition=bottom;verticalAlign=top;align=center;html=1;fontSize=12;fontStyle=0;aspect=fixed;shape=mxgraph.aws4.resourceIcon;resIcon=mxgraph.aws4.auto_scaling2;" parent="wCBR-sV3WrU25N1I4WDX-13" vertex="1">
                    <mxGeometry x="616.72" y="180" width="26.56" height="26.56" as="geometry"/>
                </mxCell>
                <mxCell id="wCBR-sV3WrU25N1I4WDX-7" value="&lt;b&gt;&lt;font color=&quot;#999999&quot;&gt;Workload WebApp&lt;/font&gt;&lt;/b&gt;" style="text;html=1;align=center;verticalAlign=middle;resizable=0;points=[];autosize=1;strokeColor=none;fillColor=none;" parent="wCBR-sV3WrU25N1I4WDX-13" vertex="1">
                    <mxGeometry x="655" y="110" width="130" height="30" as="geometry"/>
                </mxCell>
                <mxCell id="wCBR-sV3WrU25N1I4WDX-41" style="edgeStyle=orthogonalEdgeStyle;rounded=0;orthogonalLoop=1;jettySize=auto;html=1;entryX=0.5;entryY=0;entryDx=0;entryDy=0;entryPerimeter=0;" parent="wCBR-sV3WrU25N1I4WDX-13" source="wCBR-sV3WrU25N1I4WDX-3" target="wCBR-sV3WrU25N1I4WDX-6" edge="1">
                    <mxGeometry relative="1" as="geometry"/>
                </mxCell>
                <mxCell id="wCBR-sV3WrU25N1I4WDX-42" style="edgeStyle=orthogonalEdgeStyle;rounded=0;orthogonalLoop=1;jettySize=auto;html=1;entryX=0.5;entryY=0;entryDx=0;entryDy=0;entryPerimeter=0;" parent="wCBR-sV3WrU25N1I4WDX-13" source="wCBR-sV3WrU25N1I4WDX-6" target="wCBR-sV3WrU25N1I4WDX-17" edge="1">
                    <mxGeometry relative="1" as="geometry"/>
                </mxCell>
                <mxCell id="wCBR-sV3WrU25N1I4WDX-45" value="Terraform&#10;" style="shape=image;verticalLabelPosition=bottom;labelBackgroundColor=default;verticalAlign=top;aspect=fixed;imageAspect=0;image=https://static-00.iconduck.com/assets.00/terraform-icon-1803x2048-hodrzd3t.png;fontStyle=1" parent="wCBR-sV3WrU25N1I4WDX-13" vertex="1">
                    <mxGeometry x="-100" y="370" width="54.95" height="62.44" as="geometry"/>
                </mxCell>
                <mxCell id="wCBR-sV3WrU25N1I4WDX-51" style="edgeStyle=orthogonalEdgeStyle;rounded=0;orthogonalLoop=1;jettySize=auto;html=1;entryX=0.002;entryY=0.721;entryDx=0;entryDy=0;entryPerimeter=0;" parent="wCBR-sV3WrU25N1I4WDX-13" source="wCBR-sV3WrU25N1I4WDX-45" target="wCBR-sV3WrU25N1I4WDX-49" edge="1">
                    <mxGeometry relative="1" as="geometry"/>
                </mxCell>
                <mxCell id="wCBR-sV3WrU25N1I4WDX-52" style="edgeStyle=orthogonalEdgeStyle;rounded=0;orthogonalLoop=1;jettySize=auto;html=1;entryX=0.003;entryY=0.725;entryDx=0;entryDy=0;entryPerimeter=0;" parent="wCBR-sV3WrU25N1I4WDX-13" source="wCBR-sV3WrU25N1I4WDX-19" target="wCBR-sV3WrU25N1I4WDX-2" edge="1">
                    <mxGeometry relative="1" as="geometry"/>
                </mxCell>
                <mxCell id="iPkySld897o3dpF5b1oE-1" value="Nova versÃ£o" style="edgeLabel;html=1;align=center;verticalAlign=middle;resizable=0;points=[];" parent="wCBR-sV3WrU25N1I4WDX-52" vertex="1" connectable="0">
                    <mxGeometry x="0.3855" y="-3" relative="1" as="geometry">
                        <mxPoint x="-18" y="-2" as="offset"/>
                    </mxGeometry>
                </mxCell>
                <mxCell id="wCBR-sV3WrU25N1I4WDX-56" style="edgeStyle=orthogonalEdgeStyle;rounded=0;orthogonalLoop=1;jettySize=auto;html=1;" parent="wCBR-sV3WrU25N1I4WDX-13" target="wCBR-sV3WrU25N1I4WDX-45" edge="1">
                    <mxGeometry relative="1" as="geometry">
                        <mxPoint x="-166.6300000000001" y="401.2199999999998" as="sourcePoint"/>
                    </mxGeometry>
                </mxCell>
                <mxCell id="wCBR-sV3WrU25N1I4WDX-58" style="edgeStyle=orthogonalEdgeStyle;rounded=0;orthogonalLoop=1;jettySize=auto;html=1;" parent="wCBR-sV3WrU25N1I4WDX-13" source="wCBR-sV3WrU25N1I4WDX-57" target="wCBR-sV3WrU25N1I4WDX-44" edge="1">
                    <mxGeometry relative="1" as="geometry"/>
                </mxCell>
                <mxCell id="wCBR-sV3WrU25N1I4WDX-57" value=".yaml" style="sketch=0;outlineConnect=0;fontColor=#232F3E;gradientColor=none;fillColor=#E7157B;strokeColor=none;dashed=0;verticalLabelPosition=bottom;verticalAlign=top;align=center;html=1;fontSize=12;fontStyle=0;aspect=fixed;pointerEvents=1;shape=mxgraph.aws4.template;" parent="wCBR-sV3WrU25N1I4WDX-13" vertex="1">
                    <mxGeometry x="-86.72000000000001" y="265" width="41.67" height="50" as="geometry"/>
                </mxCell>
                <mxCell id="C20ahX1C72TMDXFEPMS8-1" value=".tf" style="sketch=0;aspect=fixed;pointerEvents=1;shadow=0;dashed=0;html=1;strokeColor=none;labelPosition=center;verticalLabelPosition=bottom;verticalAlign=top;align=center;fillColor=#6C0AFF;shape=mxgraph.azure.file" parent="wCBR-sV3WrU25N1I4WDX-13" vertex="1">
                    <mxGeometry x="-210" y="376.22" width="47" height="50" as="geometry"/>
                </mxCell>
                <mxCell id="wCBR-sV3WrU25N1I4WDX-12" value="Dev" style="text;html=1;align=center;verticalAlign=middle;resizable=0;points=[];autosize=1;strokeColor=none;fillColor=none;" parent="1" vertex="1">
                    <mxGeometry x="260" width="40" height="30" as="geometry"/>
                </mxCell>
                <mxCell id="wCBR-sV3WrU25N1I4WDX-43" value="Cliente" style="image;points=[];aspect=fixed;html=1;align=center;shadow=0;dashed=0;image=img/lib/allied_telesis/computer_and_terminals/Personal_Computer.svg;" parent="1" vertex="1">
                    <mxGeometry x="577.2" y="-40" width="45.6" height="61.800000000000004" as="geometry"/>
                </mxCell>
                <mxCell id="wCBR-sV3WrU25N1I4WDX-9" value="" style="shape=actor;whiteSpace=wrap;html=1;" parent="1" vertex="1">
                    <mxGeometry x="260" y="-60" width="40" height="60" as="geometry"/>
                </mxCell>
                <mxCell id="GGuRKsYAGu5N2Q_C-kRw-10" style="edgeStyle=orthogonalEdgeStyle;rounded=0;orthogonalLoop=1;jettySize=auto;html=1;entryX=0.5;entryY=0;entryDx=0;entryDy=0;entryPerimeter=0;" parent="1" source="wCBR-sV3WrU25N1I4WDX-12" target="wCBR-sV3WrU25N1I4WDX-4" edge="1">
                    <mxGeometry relative="1" as="geometry"/>
                </mxCell>
                <mxCell id="1NrCV2VVhFDTZJ5VcER1-1" value="&lt;ol&gt;&lt;li&gt;S3 Version&lt;/li&gt;&lt;li&gt;VPC&lt;/li&gt;&lt;li&gt;EC2&lt;/li&gt;&lt;li&gt;RDS&lt;/li&gt;&lt;li&gt;S3 WebApp&lt;/li&gt;&lt;li&gt;CodePipeline&lt;/li&gt;&lt;li&gt;CodeDeploy&lt;/li&gt;&lt;/ol&gt;" style="text;html=1;align=center;verticalAlign=middle;resizable=0;points=[];autosize=1;strokeColor=none;fillColor=none;" parent="1" vertex="1">
                    <mxGeometry x="-160" y="70" width="130" height="140" as="geometry"/>
                </mxCell>
            </root>
        </mxGraphModel>
    </diagram>
    <diagram id="MjhgPG2BhUkRss8DcIQ6" name="Fase 3">
        <mxGraphModel dx="1797" dy="1881" grid="1" gridSize="10" guides="1" tooltips="1" connect="1" arrows="1" fold="1" page="1" pageScale="1" pageWidth="827" pageHeight="1169" math="0" shadow="0">
            <root>
                <mxCell id="0"/>
                <mxCell id="1" parent="0"/>
                <mxCell id="xQRXT9PR4U_KEEuiP1HM-2" value="AWS Account" style="points=[[0,0],[0.25,0],[0.5,0],[0.75,0],[1,0],[1,0.25],[1,0.5],[1,0.75],[1,1],[0.75,1],[0.5,1],[0.25,1],[0,1],[0,0.75],[0,0.5],[0,0.25]];outlineConnect=0;gradientColor=none;html=1;whiteSpace=wrap;fontSize=12;fontStyle=0;container=1;pointerEvents=0;collapsible=0;recursiveResize=0;shape=mxgraph.aws4.group;grIcon=mxgraph.aws4.group_account;strokeColor=#CD2264;fillColor=none;verticalAlign=top;align=left;spacingLeft=30;fontColor=#CD2264;dashed=0;" parent="1" vertex="1">
                    <mxGeometry x="-30" y="70" width="1290" height="750" as="geometry"/>
                </mxCell>
                <mxCell id="xQRXT9PR4U_KEEuiP1HM-1" style="edgeStyle=orthogonalEdgeStyle;rounded=0;orthogonalLoop=1;jettySize=auto;html=1;entryX=0.5;entryY=0;entryDx=0;entryDy=0;entryPerimeter=0;" parent="xQRXT9PR4U_KEEuiP1HM-2" source="xQRXT9PR4U_KEEuiP1HM-53" target="xQRXT9PR4U_KEEuiP1HM-35" edge="1">
                    <mxGeometry relative="1" as="geometry">
                        <mxPoint x="762.8" y="240.25" as="targetPoint"/>
                        <Array as="points">
                            <mxPoint x="763" y="70"/>
                            <mxPoint x="540" y="70"/>
                        </Array>
                    </mxGeometry>
                </mxCell>
                <mxCell id="xQRXT9PR4U_KEEuiP1HM-3" value="" style="rounded=0;whiteSpace=wrap;html=1;fillColor=none;dashed=1;" parent="xQRXT9PR4U_KEEuiP1HM-2" vertex="1">
                    <mxGeometry x="70" y="130" width="1190" height="590" as="geometry"/>
                </mxCell>
                <mxCell id="dK0z23LkkbQTpKE4wJ74-27" style="edgeStyle=orthogonalEdgeStyle;rounded=0;orthogonalLoop=1;jettySize=auto;html=1;entryX=0;entryY=0.5;entryDx=0;entryDy=0;strokeColor=#FF3333;dashed=1;" parent="xQRXT9PR4U_KEEuiP1HM-2" source="xQRXT9PR4U_KEEuiP1HM-7" target="xQRXT9PR4U_KEEuiP1HM-13" edge="1">
                    <mxGeometry relative="1" as="geometry">
                        <Array as="points">
                            <mxPoint x="870" y="430"/>
                            <mxPoint x="870" y="630"/>
                        </Array>
                    </mxGeometry>
                </mxCell>
                <mxCell id="xQRXT9PR4U_KEEuiP1HM-34" value="" style="rounded=0;whiteSpace=wrap;html=1;fillColor=none;strokeColor=#FF8000;" parent="xQRXT9PR4U_KEEuiP1HM-2" vertex="1">
                    <mxGeometry x="395" y="229.75" width="465" height="440" as="geometry"/>
                </mxCell>
                <mxCell id="xQRXT9PR4U_KEEuiP1HM-4" style="edgeStyle=orthogonalEdgeStyle;rounded=0;orthogonalLoop=1;jettySize=auto;html=1;dashed=1;" parent="xQRXT9PR4U_KEEuiP1HM-2" source="xQRXT9PR4U_KEEuiP1HM-5" target="xQRXT9PR4U_KEEuiP1HM-20" edge="1">
                    <mxGeometry relative="1" as="geometry">
                        <Array as="points">
                            <mxPoint x="765" y="430"/>
                            <mxPoint x="765" y="430"/>
                        </Array>
                    </mxGeometry>
                </mxCell>
                <mxCell id="xQRXT9PR4U_KEEuiP1HM-5" value="&lt;div&gt;&lt;b&gt;WebApp&lt;/b&gt;&lt;/div&gt;&lt;div&gt;us-east-1b&lt;/div&gt;" style="sketch=0;points=[[0,0,0],[0.25,0,0],[0.5,0,0],[0.75,0,0],[1,0,0],[0,1,0],[0.25,1,0],[0.5,1,0],[0.75,1,0],[1,1,0],[0,0.25,0],[0,0.5,0],[0,0.75,0],[1,0.25,0],[1,0.5,0],[1,0.75,0]];outlineConnect=0;fontColor=#232F3E;fillColor=#ED7100;strokeColor=#ffffff;dashed=1;verticalLabelPosition=bottom;verticalAlign=top;align=center;html=1;fontSize=12;fontStyle=0;aspect=fixed;shape=mxgraph.aws4.resourceIcon;resIcon=mxgraph.aws4.ec2;" parent="xQRXT9PR4U_KEEuiP1HM-2" vertex="1">
                    <mxGeometry x="560" y="410" width="40" height="40" as="geometry"/>
                </mxCell>
                <mxCell id="xQRXT9PR4U_KEEuiP1HM-6" style="edgeStyle=orthogonalEdgeStyle;rounded=0;orthogonalLoop=1;jettySize=auto;html=1;dashed=1;" parent="xQRXT9PR4U_KEEuiP1HM-2" source="xQRXT9PR4U_KEEuiP1HM-7" target="xQRXT9PR4U_KEEuiP1HM-19" edge="1">
                    <mxGeometry relative="1" as="geometry">
                        <Array as="points">
                            <mxPoint x="430" y="520"/>
                        </Array>
                    </mxGeometry>
                </mxCell>
                <mxCell id="xQRXT9PR4U_KEEuiP1HM-7" value="&lt;div&gt;&lt;b&gt;WebApp&lt;/b&gt;&lt;/div&gt;&lt;div&gt;us-east-1a&lt;/div&gt;" style="sketch=0;points=[[0,0,0],[0.25,0,0],[0.5,0,0],[0.75,0,0],[1,0,0],[0,1,0],[0.25,1,0],[0.5,1,0],[0.75,1,0],[1,1,0],[0,0.25,0],[0,0.5,0],[0,0.75,0],[1,0.25,0],[1,0.5,0],[1,0.75,0]];outlineConnect=0;fontColor=#232F3E;fillColor=#ED7100;strokeColor=#ffffff;dashed=1;verticalLabelPosition=bottom;verticalAlign=top;align=center;html=1;fontSize=12;fontStyle=0;aspect=fixed;shape=mxgraph.aws4.resourceIcon;resIcon=mxgraph.aws4.ec2;" parent="xQRXT9PR4U_KEEuiP1HM-2" vertex="1">
                    <mxGeometry x="410" y="410" width="40" height="40" as="geometry"/>
                </mxCell>
                <mxCell id="xQRXT9PR4U_KEEuiP1HM-8" value="" style="rounded=0;whiteSpace=wrap;html=1;fillColor=none;strokeColor=#000000;dashed=1;" parent="xQRXT9PR4U_KEEuiP1HM-2" vertex="1">
                    <mxGeometry x="432.5" y="541.75" width="225" height="110" as="geometry"/>
                </mxCell>
                <mxCell id="xQRXT9PR4U_KEEuiP1HM-9" value="&lt;b&gt;S3&lt;/b&gt;&lt;div&gt;Midia&lt;/div&gt;" style="sketch=0;points=[[0,0,0],[0.25,0,0],[0.5,0,0],[0.75,0,0],[1,0,0],[0,1,0],[0.25,1,0],[0.5,1,0],[0.75,1,0],[1,1,0],[0,0.25,0],[0,0.5,0],[0,0.75,0],[1,0.25,0],[1,0.5,0],[1,0.75,0]];outlineConnect=0;fontColor=#232F3E;fillColor=#7AA116;strokeColor=#ffffff;dashed=0;verticalLabelPosition=bottom;verticalAlign=top;align=center;html=1;fontSize=12;fontStyle=0;aspect=fixed;shape=mxgraph.aws4.resourceIcon;resIcon=mxgraph.aws4.s3;" parent="xQRXT9PR4U_KEEuiP1HM-2" vertex="1">
                    <mxGeometry x="577.5" y="570" width="40" height="40" as="geometry"/>
                </mxCell>
                <mxCell id="xQRXT9PR4U_KEEuiP1HM-10" value="&lt;b&gt;RDS&lt;/b&gt;&lt;div&gt;Tabela de usuÃ¡rios&lt;/div&gt;" style="sketch=0;points=[[0,0,0],[0.25,0,0],[0.5,0,0],[0.75,0,0],[1,0,0],[0,1,0],[0.25,1,0],[0.5,1,0],[0.75,1,0],[1,1,0],[0,0.25,0],[0,0.5,0],[0,0.75,0],[1,0.25,0],[1,0.5,0],[1,0.75,0]];outlineConnect=0;fontColor=#232F3E;fillColor=#C925D1;strokeColor=#ffffff;dashed=0;verticalLabelPosition=bottom;verticalAlign=top;align=center;html=1;fontSize=12;fontStyle=0;aspect=fixed;shape=mxgraph.aws4.resourceIcon;resIcon=mxgraph.aws4.rds;" parent="xQRXT9PR4U_KEEuiP1HM-2" vertex="1">
                    <mxGeometry x="477.5" y="570" width="40" height="40" as="geometry"/>
                </mxCell>
                <mxCell id="xQRXT9PR4U_KEEuiP1HM-11" value="Storage WebApp" style="text;html=1;align=center;verticalAlign=middle;resizable=0;points=[];autosize=1;strokeColor=none;fillColor=none;fontStyle=1;dashed=1;" parent="xQRXT9PR4U_KEEuiP1HM-2" vertex="1">
                    <mxGeometry x="547.5" y="540" width="110" height="30" as="geometry"/>
                </mxCell>
                <mxCell id="xQRXT9PR4U_KEEuiP1HM-12" value="&lt;font color=&quot;#999999&quot;&gt;Network VPC&lt;/font&gt;" style="points=[[0,0],[0.25,0],[0.5,0],[0.75,0],[1,0],[1,0.25],[1,0.5],[1,0.75],[1,1],[0.75,1],[0.5,1],[0.25,1],[0,1],[0,0.75],[0,0.5],[0,0.25]];outlineConnect=0;gradientColor=none;html=1;whiteSpace=wrap;fontSize=12;fontStyle=0;container=1;pointerEvents=0;collapsible=0;recursiveResize=0;shape=mxgraph.aws4.group;grIcon=mxgraph.aws4.group_vpc2;strokeColor=#8C4FFF;fillColor=none;verticalAlign=top;align=left;spacingLeft=30;fontColor=#AAB7B8;dashed=0;" parent="xQRXT9PR4U_KEEuiP1HM-2" vertex="1">
                    <mxGeometry x="890" y="160" width="340" height="540" as="geometry"/>
                </mxCell>
                <mxCell id="xQRXT9PR4U_KEEuiP1HM-13" value="Security group" style="fillColor=none;strokeColor=#DD3522;verticalAlign=top;fontStyle=0;fontColor=#DD3522;whiteSpace=wrap;html=1;" parent="xQRXT9PR4U_KEEuiP1HM-12" vertex="1">
                    <mxGeometry x="32" y="420" width="260" height="100" as="geometry"/>
                </mxCell>
                <mxCell id="xQRXT9PR4U_KEEuiP1HM-14" style="edgeStyle=orthogonalEdgeStyle;rounded=0;orthogonalLoop=1;jettySize=auto;html=1;" parent="xQRXT9PR4U_KEEuiP1HM-12" source="xQRXT9PR4U_KEEuiP1HM-24" target="xQRXT9PR4U_KEEuiP1HM-16" edge="1">
                    <mxGeometry relative="1" as="geometry">
                        <Array as="points">
                            <mxPoint x="307" y="260"/>
                        </Array>
                    </mxGeometry>
                </mxCell>
                <mxCell id="xQRXT9PR4U_KEEuiP1HM-15" style="edgeStyle=orthogonalEdgeStyle;rounded=0;orthogonalLoop=1;jettySize=auto;html=1;" parent="xQRXT9PR4U_KEEuiP1HM-12" source="xQRXT9PR4U_KEEuiP1HM-24" target="xQRXT9PR4U_KEEuiP1HM-17" edge="1">
                    <mxGeometry relative="1" as="geometry">
                        <Array as="points">
                            <mxPoint x="307" y="360"/>
                        </Array>
                    </mxGeometry>
                </mxCell>
                <mxCell id="xQRXT9PR4U_KEEuiP1HM-16" value="Subnet us-east-1a" style="sketch=0;outlineConnect=0;gradientColor=none;html=1;whiteSpace=wrap;fontSize=12;fontStyle=0;shape=mxgraph.aws4.group;grIcon=mxgraph.aws4.group_subnet;strokeColor=#879196;fillColor=none;verticalAlign=top;align=left;spacingLeft=30;fontColor=#879196;dashed=0;" parent="xQRXT9PR4U_KEEuiP1HM-12" vertex="1">
                    <mxGeometry x="62" y="220" width="190" height="70" as="geometry"/>
                </mxCell>
                <mxCell id="xQRXT9PR4U_KEEuiP1HM-17" value="Subnet us-east-1b" style="sketch=0;outlineConnect=0;gradientColor=none;html=1;whiteSpace=wrap;fontSize=12;fontStyle=0;shape=mxgraph.aws4.group;grIcon=mxgraph.aws4.group_subnet;strokeColor=#879196;fillColor=none;verticalAlign=top;align=left;spacingLeft=30;fontColor=#879196;dashed=0;" parent="xQRXT9PR4U_KEEuiP1HM-12" vertex="1">
                    <mxGeometry x="62" y="310" width="190" height="80" as="geometry"/>
                </mxCell>
                <mxCell id="xQRXT9PR4U_KEEuiP1HM-18" value="&lt;div&gt;&lt;span style=&quot;white-space-collapse: preserve; white-space-collapse: collapse;&quot;&gt;&#9;&lt;/span&gt;&lt;/div&gt;&lt;div&gt;10.0.0.0/16 (pub)&lt;/div&gt;" style="text;html=1;align=center;verticalAlign=middle;resizable=0;points=[];autosize=1;strokeColor=none;fillColor=none;" parent="xQRXT9PR4U_KEEuiP1HM-12" vertex="1">
                    <mxGeometry x="97" y="335" width="110" height="30" as="geometry"/>
                </mxCell>
                <mxCell id="xQRXT9PR4U_KEEuiP1HM-19" value="&lt;div&gt;&lt;span style=&quot;white-space-collapse: preserve; white-space-collapse: collapse;&quot;&gt;&#9;&lt;/span&gt;&lt;/div&gt;&lt;div&gt;10.0.1.0/16 (priv)&lt;/div&gt;" style="text;html=1;align=center;verticalAlign=middle;resizable=0;points=[];autosize=1;strokeColor=none;fillColor=none;" parent="xQRXT9PR4U_KEEuiP1HM-12" vertex="1">
                    <mxGeometry x="97" y="360" width="110" height="30" as="geometry"/>
                </mxCell>
                <mxCell id="xQRXT9PR4U_KEEuiP1HM-20" value="&lt;div&gt;&lt;span style=&quot;white-space-collapse: preserve; white-space-collapse: collapse;&quot;&gt;&#9;&lt;/span&gt;&lt;/div&gt;&lt;div&gt;10.0.2.0/16 (pub)&lt;/div&gt;" style="text;html=1;align=center;verticalAlign=middle;resizable=0;points=[];autosize=1;strokeColor=none;fillColor=none;" parent="xQRXT9PR4U_KEEuiP1HM-12" vertex="1">
                    <mxGeometry x="97" y="245" width="110" height="30" as="geometry"/>
                </mxCell>
                <mxCell id="xQRXT9PR4U_KEEuiP1HM-21" value="&lt;div&gt;&lt;span style=&quot;white-space-collapse: preserve; white-space-collapse: collapse;&quot;&gt;&#9;&lt;/span&gt;&lt;/div&gt;&lt;div&gt;10.0.3.0/16 (priv)&lt;/div&gt;" style="text;html=1;align=center;verticalAlign=middle;resizable=0;points=[];autosize=1;strokeColor=none;fillColor=none;" parent="xQRXT9PR4U_KEEuiP1HM-12" vertex="1">
                    <mxGeometry x="99.5" y="260" width="110" height="30" as="geometry"/>
                </mxCell>
                <mxCell id="xQRXT9PR4U_KEEuiP1HM-22" value="&lt;div&gt;&lt;span style=&quot;background-color: initial;&quot;&gt;&lt;b&gt;Inbound&lt;/b&gt;&lt;br&gt;IPv4 |&amp;nbsp;&lt;/span&gt;&lt;span style=&quot;background-color: initial;&quot;&gt;HTTP |&amp;nbsp;&lt;/span&gt;&lt;span style=&quot;background-color: initial;&quot;&gt;TCP |&amp;nbsp;&lt;/span&gt;&lt;span style=&quot;background-color: initial;&quot;&gt;80 |&amp;nbsp;&lt;/span&gt;&lt;span style=&quot;background-color: initial;&quot;&gt;0.0.0.0/0&lt;/span&gt;&lt;/div&gt;" style="text;html=1;align=center;verticalAlign=middle;resizable=0;points=[];autosize=1;strokeColor=none;" parent="xQRXT9PR4U_KEEuiP1HM-12" vertex="1">
                    <mxGeometry x="62" y="445" width="200" height="40" as="geometry"/>
                </mxCell>
                <mxCell id="xQRXT9PR4U_KEEuiP1HM-23" value="&lt;span style=&quot;background-color: initial;&quot;&gt;&lt;b&gt;Outbound&lt;br&gt;&lt;/b&gt;&lt;/span&gt;&lt;span style=&quot;background-color: initial;&quot;&gt;IPv4 |&amp;nbsp;&lt;/span&gt;&lt;span style=&quot;background-color: initial;&quot;&gt;Todo o trÃ¡fego |&amp;nbsp;&lt;/span&gt;&lt;span style=&quot;background-color: initial;&quot;&gt;Tudo |&amp;nbsp;&lt;/span&gt;&lt;span style=&quot;background-color: initial;&quot;&gt;Tudo |&amp;nbsp;&lt;/span&gt;&lt;span style=&quot;background-color: initial;&quot;&gt;0.0.0.0/0&lt;/span&gt;&lt;span style=&quot;background-color: initial;&quot;&gt;&lt;br&gt;&lt;/span&gt;" style="text;html=1;align=center;verticalAlign=middle;resizable=0;points=[];autosize=1;strokeColor=none;rounded=0;" parent="xQRXT9PR4U_KEEuiP1HM-12" vertex="1">
                    <mxGeometry x="32" y="480" width="260" height="40" as="geometry"/>
                </mxCell>
                <mxCell id="xQRXT9PR4U_KEEuiP1HM-24" value="" style="sketch=0;outlineConnect=0;fontColor=#232F3E;gradientColor=none;fillColor=#8C4FFF;strokeColor=none;dashed=0;verticalLabelPosition=bottom;verticalAlign=top;align=center;html=1;fontSize=12;fontStyle=0;aspect=fixed;pointerEvents=1;shape=mxgraph.aws4.nat_gateway;" parent="xQRXT9PR4U_KEEuiP1HM-12" vertex="1">
                    <mxGeometry x="277" y="280" width="60" height="60" as="geometry"/>
                </mxCell>
                <mxCell id="xQRXT9PR4U_KEEuiP1HM-26" value="" style="rounded=0;whiteSpace=wrap;html=1;fillColor=none;strokeColor=#A680B8;" parent="xQRXT9PR4U_KEEuiP1HM-2" vertex="1">
                    <mxGeometry x="110" y="285" width="220" height="335" as="geometry"/>
                </mxCell>
                <mxCell id="xQRXT9PR4U_KEEuiP1HM-27" value="&lt;b&gt;S3&lt;/b&gt;&lt;div&gt;Application Version&lt;/div&gt;" style="sketch=0;points=[[0,0,0],[0.25,0,0],[0.5,0,0],[0.75,0,0],[1,0,0],[0,1,0],[0.25,1,0],[0.5,1,0],[0.75,1,0],[1,1,0],[0,0.25,0],[0,0.5,0],[0,0.75,0],[1,0.25,0],[1,0.5,0],[1,0.75,0]];outlineConnect=0;fontColor=#232F3E;fillColor=#7AA116;strokeColor=#ffffff;dashed=0;verticalLabelPosition=bottom;verticalAlign=top;align=center;html=1;fontSize=12;fontStyle=0;aspect=fixed;shape=mxgraph.aws4.resourceIcon;resIcon=mxgraph.aws4.s3;" parent="xQRXT9PR4U_KEEuiP1HM-2" vertex="1">
                    <mxGeometry x="200" y="325" width="40" height="40" as="geometry"/>
                </mxCell>
                <mxCell id="xQRXT9PR4U_KEEuiP1HM-28" value="&lt;b&gt;&lt;font color=&quot;#999999&quot;&gt;Versionamento&lt;/font&gt;&lt;/b&gt;" style="text;html=1;align=center;verticalAlign=middle;resizable=0;points=[];autosize=1;strokeColor=none;fillColor=none;" parent="xQRXT9PR4U_KEEuiP1HM-2" vertex="1">
                    <mxGeometry x="220" y="285" width="110" height="30" as="geometry"/>
                </mxCell>
                <mxCell id="xQRXT9PR4U_KEEuiP1HM-29" value="&lt;b&gt;CodePipeline&lt;/b&gt;&lt;div&gt;&lt;br&gt;&lt;/div&gt;" style="sketch=0;points=[[0,0,0],[0.25,0,0],[0.5,0,0],[0.75,0,0],[1,0,0],[0,1,0],[0.25,1,0],[0.5,1,0],[0.75,1,0],[1,1,0],[0,0.25,0],[0,0.5,0],[0,0.75,0],[1,0.25,0],[1,0.5,0],[1,0.75,0]];outlineConnect=0;fontColor=#232F3E;fillColor=#C925D1;strokeColor=#ffffff;dashed=1;verticalLabelPosition=bottom;verticalAlign=top;align=center;html=1;fontSize=12;fontStyle=0;aspect=fixed;shape=mxgraph.aws4.resourceIcon;resIcon=mxgraph.aws4.codepipeline;" parent="xQRXT9PR4U_KEEuiP1HM-2" vertex="1">
                    <mxGeometry x="200" y="429" width="40" height="40" as="geometry"/>
                </mxCell>
                <mxCell id="xQRXT9PR4U_KEEuiP1HM-30" value="&lt;b&gt;CodeDeploy&lt;/b&gt;" style="sketch=0;points=[[0,0,0],[0.25,0,0],[0.5,0,0],[0.75,0,0],[1,0,0],[0,1,0],[0.25,1,0],[0.5,1,0],[0.75,1,0],[1,1,0],[0,0.25,0],[0,0.5,0],[0,0.75,0],[1,0.25,0],[1,0.5,0],[1,0.75,0]];outlineConnect=0;fontColor=#232F3E;fillColor=#C925D1;strokeColor=#ffffff;dashed=1;verticalLabelPosition=bottom;verticalAlign=top;align=center;html=1;fontSize=12;fontStyle=0;aspect=fixed;shape=mxgraph.aws4.resourceIcon;resIcon=mxgraph.aws4.codedeploy;" parent="xQRXT9PR4U_KEEuiP1HM-2" vertex="1">
                    <mxGeometry x="200" y="530" width="40" height="40" as="geometry"/>
                </mxCell>
                <mxCell id="xQRXT9PR4U_KEEuiP1HM-31" style="edgeStyle=orthogonalEdgeStyle;rounded=0;orthogonalLoop=1;jettySize=auto;html=1;entryX=0.5;entryY=0;entryDx=0;entryDy=0;entryPerimeter=0;" parent="xQRXT9PR4U_KEEuiP1HM-2" source="xQRXT9PR4U_KEEuiP1HM-29" target="xQRXT9PR4U_KEEuiP1HM-30" edge="1">
                    <mxGeometry relative="1" as="geometry"/>
                </mxCell>
                <mxCell id="xQRXT9PR4U_KEEuiP1HM-32" style="edgeStyle=orthogonalEdgeStyle;rounded=0;orthogonalLoop=1;jettySize=auto;html=1;" parent="xQRXT9PR4U_KEEuiP1HM-2" source="xQRXT9PR4U_KEEuiP1HM-29" edge="1">
                    <mxGeometry relative="1" as="geometry">
                        <mxPoint x="220" y="400" as="targetPoint"/>
                    </mxGeometry>
                </mxCell>
                <mxCell id="dK0z23LkkbQTpKE4wJ74-31" style="edgeStyle=orthogonalEdgeStyle;rounded=0;orthogonalLoop=1;jettySize=auto;html=1;entryX=0;entryY=0.5;entryDx=0;entryDy=0;strokeColor=#FF3333;dashed=1;exitX=0.5;exitY=1;exitDx=0;exitDy=0;exitPerimeter=0;" parent="xQRXT9PR4U_KEEuiP1HM-2" source="xQRXT9PR4U_KEEuiP1HM-35" target="dK0z23LkkbQTpKE4wJ74-28" edge="1">
                    <mxGeometry relative="1" as="geometry">
                        <Array as="points">
                            <mxPoint x="628" y="290"/>
                        </Array>
                    </mxGeometry>
                </mxCell>
                <mxCell id="dK0z23LkkbQTpKE4wJ74-39" style="edgeStyle=orthogonalEdgeStyle;rounded=0;orthogonalLoop=1;jettySize=auto;html=1;curved=1;" parent="xQRXT9PR4U_KEEuiP1HM-2" source="xQRXT9PR4U_KEEuiP1HM-35" target="xQRXT9PR4U_KEEuiP1HM-37" edge="1">
                    <mxGeometry relative="1" as="geometry">
                        <Array as="points">
                            <mxPoint x="628" y="310"/>
                            <mxPoint x="505" y="310"/>
                        </Array>
                    </mxGeometry>
                </mxCell>
                <mxCell id="xQRXT9PR4U_KEEuiP1HM-35" value="&lt;b&gt;ALB&lt;/b&gt;" style="outlineConnect=0;dashed=1;verticalLabelPosition=bottom;verticalAlign=top;align=center;html=1;shape=mxgraph.aws3.application_load_balancer;fillColor=#F58534;gradientColor=none;direction=east;" parent="xQRXT9PR4U_KEEuiP1HM-2" vertex="1">
                    <mxGeometry x="602.75" y="200" width="49.5" height="50" as="geometry"/>
                </mxCell>
                <mxCell id="xQRXT9PR4U_KEEuiP1HM-36" style="edgeStyle=orthogonalEdgeStyle;rounded=0;orthogonalLoop=1;jettySize=auto;html=1;" parent="xQRXT9PR4U_KEEuiP1HM-2" source="xQRXT9PR4U_KEEuiP1HM-37" target="xQRXT9PR4U_KEEuiP1HM-5" edge="1">
                    <mxGeometry relative="1" as="geometry"/>
                </mxCell>
                <mxCell id="xQRXT9PR4U_KEEuiP1HM-37" value="&lt;b&gt;AutoScalling&lt;/b&gt;" style="sketch=0;points=[[0,0,0],[0.25,0,0],[0.5,0,0],[0.75,0,0],[1,0,0],[0,1,0],[0.25,1,0],[0.5,1,0],[0.75,1,0],[1,1,0],[0,0.25,0],[0,0.5,0],[0,0.75,0],[1,0.25,0],[1,0.5,0],[1,0.75,0]];outlineConnect=0;fontColor=#232F3E;fillColor=#ED7100;strokeColor=#ffffff;verticalLabelPosition=bottom;verticalAlign=top;align=center;html=1;fontSize=12;fontStyle=0;aspect=fixed;shape=mxgraph.aws4.resourceIcon;resIcon=mxgraph.aws4.auto_scaling2;" parent="xQRXT9PR4U_KEEuiP1HM-2" vertex="1">
                    <mxGeometry x="491.72" y="350" width="26.56" height="26.56" as="geometry"/>
                </mxCell>
                <mxCell id="xQRXT9PR4U_KEEuiP1HM-38" value="&lt;b&gt;&lt;font color=&quot;#999999&quot;&gt;Workload WebApp&lt;/font&gt;&lt;/b&gt;" style="text;html=1;align=center;verticalAlign=middle;resizable=0;points=[];autosize=1;strokeColor=none;fillColor=none;" parent="xQRXT9PR4U_KEEuiP1HM-2" vertex="1">
                    <mxGeometry x="390" y="230" width="130" height="30" as="geometry"/>
                </mxCell>
                <mxCell id="xQRXT9PR4U_KEEuiP1HM-40" style="edgeStyle=orthogonalEdgeStyle;rounded=0;orthogonalLoop=1;jettySize=auto;html=1;entryX=0.5;entryY=0;entryDx=0;entryDy=0;entryPerimeter=0;" parent="xQRXT9PR4U_KEEuiP1HM-2" source="xQRXT9PR4U_KEEuiP1HM-37" target="xQRXT9PR4U_KEEuiP1HM-7" edge="1">
                    <mxGeometry relative="1" as="geometry"/>
                </mxCell>
                <mxCell id="xQRXT9PR4U_KEEuiP1HM-43" style="edgeStyle=orthogonalEdgeStyle;rounded=0;orthogonalLoop=1;jettySize=auto;html=1;entryX=0.003;entryY=0.725;entryDx=0;entryDy=0;entryPerimeter=0;" parent="xQRXT9PR4U_KEEuiP1HM-2" source="xQRXT9PR4U_KEEuiP1HM-30" target="xQRXT9PR4U_KEEuiP1HM-34" edge="1">
                    <mxGeometry relative="1" as="geometry"/>
                </mxCell>
                <mxCell id="xQRXT9PR4U_KEEuiP1HM-44" value="Nova versÃ£o" style="edgeLabel;html=1;align=center;verticalAlign=middle;resizable=0;points=[];" parent="xQRXT9PR4U_KEEuiP1HM-43" vertex="1" connectable="0">
                    <mxGeometry x="0.3855" y="-3" relative="1" as="geometry">
                        <mxPoint x="-18" y="-2" as="offset"/>
                    </mxGeometry>
                </mxCell>
                <mxCell id="xQRXT9PR4U_KEEuiP1HM-49" value="Lambda@Edge" style="sketch=0;points=[[0,0,0],[0.25,0,0],[0.5,0,0],[0.75,0,0],[1,0,0],[0,1,0],[0.25,1,0],[0.5,1,0],[0.75,1,0],[1,1,0],[0,0.25,0],[0,0.5,0],[0,0.75,0],[1,0.25,0],[1,0.5,0],[1,0.75,0]];outlineConnect=0;fontColor=#232F3E;fillColor=#ED7100;strokeColor=#ffffff;dashed=0;verticalLabelPosition=bottom;verticalAlign=top;align=center;html=1;fontSize=12;fontStyle=0;aspect=fixed;shape=mxgraph.aws4.resourceIcon;resIcon=mxgraph.aws4.lambda;" parent="xQRXT9PR4U_KEEuiP1HM-2" vertex="1">
                    <mxGeometry x="610" y="42" width="40" height="40" as="geometry"/>
                </mxCell>
                <mxCell id="xQRXT9PR4U_KEEuiP1HM-50" value="Cloudfront" style="sketch=0;points=[[0,0,0],[0.25,0,0],[0.5,0,0],[0.75,0,0],[1,0,0],[0,1,0],[0.25,1,0],[0.5,1,0],[0.75,1,0],[1,1,0],[0,0.25,0],[0,0.5,0],[0,0.75,0],[1,0.25,0],[1,0.5,0],[1,0.75,0]];outlineConnect=0;fontColor=#232F3E;fillColor=#8C4FFF;strokeColor=#ffffff;dashed=0;verticalLabelPosition=bottom;verticalAlign=top;align=center;html=1;fontSize=12;fontStyle=0;aspect=fixed;shape=mxgraph.aws4.resourceIcon;resIcon=mxgraph.aws4.cloudfront;" parent="xQRXT9PR4U_KEEuiP1HM-2" vertex="1">
                    <mxGeometry x="725" y="42" width="40" height="40" as="geometry"/>
                </mxCell>
                <mxCell id="xQRXT9PR4U_KEEuiP1HM-51" value="Route 53" style="sketch=0;points=[[0,0,0],[0.25,0,0],[0.5,0,0],[0.75,0,0],[1,0,0],[0,1,0],[0.25,1,0],[0.5,1,0],[0.75,1,0],[1,1,0],[0,0.25,0],[0,0.5,0],[0,0.75,0],[1,0.25,0],[1,0.5,0],[1,0.75,0]];outlineConnect=0;fontColor=#232F3E;fillColor=#8C4FFF;strokeColor=#ffffff;dashed=0;verticalLabelPosition=bottom;verticalAlign=top;align=center;html=1;fontSize=12;fontStyle=0;aspect=fixed;shape=mxgraph.aws4.resourceIcon;resIcon=mxgraph.aws4.route_53;" parent="xQRXT9PR4U_KEEuiP1HM-2" vertex="1">
                    <mxGeometry x="831.3499999999999" y="41.999999999999986" width="46.2" height="46.2" as="geometry"/>
                </mxCell>
                <mxCell id="dK0z23LkkbQTpKE4wJ74-28" value="Security group" style="fillColor=none;strokeColor=#DD3522;verticalAlign=top;fontStyle=0;fontColor=#DD3522;whiteSpace=wrap;html=1;" parent="xQRXT9PR4U_KEEuiP1HM-2" vertex="1">
                    <mxGeometry x="930" y="240.25" width="260" height="100" as="geometry"/>
                </mxCell>
                <mxCell id="dK0z23LkkbQTpKE4wJ74-29" value="&lt;div&gt;&lt;span style=&quot;background-color: initial;&quot;&gt;&lt;b&gt;Inbound&lt;/b&gt;&lt;br&gt;IPv4 |&amp;nbsp;&lt;/span&gt;&lt;span style=&quot;background-color: initial;&quot;&gt;HTTPS |&amp;nbsp;&lt;/span&gt;&lt;span style=&quot;background-color: initial;&quot;&gt;TCP | 443&lt;/span&gt;&lt;span style=&quot;background-color: initial;&quot;&gt;&amp;nbsp;|&amp;nbsp;&lt;/span&gt;&lt;span style=&quot;background-color: initial;&quot;&gt;0.0.0.0/0&lt;/span&gt;&lt;/div&gt;" style="text;html=1;align=center;verticalAlign=middle;resizable=0;points=[];autosize=1;strokeColor=none;" parent="xQRXT9PR4U_KEEuiP1HM-2" vertex="1">
                    <mxGeometry x="950" y="265.25" width="220" height="40" as="geometry"/>
                </mxCell>
                <mxCell id="dK0z23LkkbQTpKE4wJ74-30" value="&lt;span style=&quot;background-color: initial;&quot;&gt;&lt;b&gt;Outbound&lt;br&gt;&lt;/b&gt;&lt;/span&gt;&lt;span style=&quot;background-color: initial;&quot;&gt;IPv4 |&amp;nbsp;&lt;/span&gt;&lt;span style=&quot;background-color: initial;&quot;&gt;Todo o trÃ¡fego |&amp;nbsp;&lt;/span&gt;&lt;span style=&quot;background-color: initial;&quot;&gt;Tudo |&amp;nbsp;&lt;/span&gt;&lt;span style=&quot;background-color: initial;&quot;&gt;Tudo |&amp;nbsp;&lt;/span&gt;&lt;span style=&quot;background-color: initial;&quot;&gt;0.0.0.0/0&lt;/span&gt;&lt;span style=&quot;background-color: initial;&quot;&gt;&lt;br&gt;&lt;/span&gt;" style="text;html=1;align=center;verticalAlign=middle;resizable=0;points=[];autosize=1;strokeColor=none;rounded=0;" parent="xQRXT9PR4U_KEEuiP1HM-2" vertex="1">
                    <mxGeometry x="930" y="300.25" width="260" height="40" as="geometry"/>
                </mxCell>
                <mxCell id="dK0z23LkkbQTpKE4wJ74-32" value="&lt;div&gt;&lt;b&gt;WebApp&lt;/b&gt;&lt;/div&gt;&lt;div&gt;sa-east-1b&lt;/div&gt;" style="sketch=0;points=[[0,0,0],[0.25,0,0],[0.5,0,0],[0.75,0,0],[1,0,0],[0,1,0],[0.25,1,0],[0.5,1,0],[0.75,1,0],[1,1,0],[0,0.25,0],[0,0.5,0],[0,0.75,0],[1,0.25,0],[1,0.5,0],[1,0.75,0]];outlineConnect=0;fontColor=#232F3E;fillColor=#ED7100;strokeColor=#ffffff;dashed=1;verticalLabelPosition=bottom;verticalAlign=top;align=center;html=1;fontSize=12;fontStyle=0;aspect=fixed;shape=mxgraph.aws4.resourceIcon;resIcon=mxgraph.aws4.ec2;" parent="xQRXT9PR4U_KEEuiP1HM-2" vertex="1">
                    <mxGeometry x="807.5" y="410" width="40" height="40" as="geometry"/>
                </mxCell>
                <mxCell id="dK0z23LkkbQTpKE4wJ74-33" value="&lt;div&gt;&lt;b&gt;WebApp&lt;/b&gt;&lt;/div&gt;&lt;div&gt;sa-east-1a&lt;/div&gt;" style="sketch=0;points=[[0,0,0],[0.25,0,0],[0.5,0,0],[0.75,0,0],[1,0,0],[0,1,0],[0.25,1,0],[0.5,1,0],[0.75,1,0],[1,1,0],[0,0.25,0],[0,0.5,0],[0,0.75,0],[1,0.25,0],[1,0.5,0],[1,0.75,0]];outlineConnect=0;fontColor=#232F3E;fillColor=#ED7100;strokeColor=#ffffff;dashed=1;verticalLabelPosition=bottom;verticalAlign=top;align=center;html=1;fontSize=12;fontStyle=0;aspect=fixed;shape=mxgraph.aws4.resourceIcon;resIcon=mxgraph.aws4.ec2;" parent="xQRXT9PR4U_KEEuiP1HM-2" vertex="1">
                    <mxGeometry x="657.5" y="410" width="40" height="40" as="geometry"/>
                </mxCell>
                <mxCell id="dK0z23LkkbQTpKE4wJ74-34" style="edgeStyle=orthogonalEdgeStyle;rounded=0;orthogonalLoop=1;jettySize=auto;html=1;" parent="xQRXT9PR4U_KEEuiP1HM-2" source="dK0z23LkkbQTpKE4wJ74-35" target="dK0z23LkkbQTpKE4wJ74-32" edge="1">
                    <mxGeometry relative="1" as="geometry"/>
                </mxCell>
                <mxCell id="dK0z23LkkbQTpKE4wJ74-35" value="&lt;b&gt;AutoScalling&lt;/b&gt;" style="sketch=0;points=[[0,0,0],[0.25,0,0],[0.5,0,0],[0.75,0,0],[1,0,0],[0,1,0],[0.25,1,0],[0.5,1,0],[0.75,1,0],[1,1,0],[0,0.25,0],[0,0.5,0],[0,0.75,0],[1,0.25,0],[1,0.5,0],[1,0.75,0]];outlineConnect=0;fontColor=#232F3E;fillColor=#ED7100;strokeColor=#ffffff;verticalLabelPosition=bottom;verticalAlign=top;align=center;html=1;fontSize=12;fontStyle=0;aspect=fixed;shape=mxgraph.aws4.resourceIcon;resIcon=mxgraph.aws4.auto_scaling2;" parent="xQRXT9PR4U_KEEuiP1HM-2" vertex="1">
                    <mxGeometry x="739.22" y="350" width="26.56" height="26.56" as="geometry"/>
                </mxCell>
                <mxCell id="dK0z23LkkbQTpKE4wJ74-36" style="edgeStyle=orthogonalEdgeStyle;rounded=0;orthogonalLoop=1;jettySize=auto;html=1;entryX=0.5;entryY=0;entryDx=0;entryDy=0;entryPerimeter=0;" parent="xQRXT9PR4U_KEEuiP1HM-2" source="dK0z23LkkbQTpKE4wJ74-35" target="dK0z23LkkbQTpKE4wJ74-33" edge="1">
                    <mxGeometry relative="1" as="geometry"/>
                </mxCell>
                <mxCell id="dK0z23LkkbQTpKE4wJ74-40" style="edgeStyle=orthogonalEdgeStyle;rounded=0;orthogonalLoop=1;jettySize=auto;html=1;entryX=0.5;entryY=0;entryDx=0;entryDy=0;entryPerimeter=0;curved=1;" parent="xQRXT9PR4U_KEEuiP1HM-2" source="xQRXT9PR4U_KEEuiP1HM-35" target="dK0z23LkkbQTpKE4wJ74-35" edge="1">
                    <mxGeometry relative="1" as="geometry">
                        <Array as="points">
                            <mxPoint x="628" y="310"/>
                            <mxPoint x="752" y="310"/>
                        </Array>
                    </mxGeometry>
                </mxCell>
                <mxCell id="dK0z23LkkbQTpKE4wJ74-41" style="edgeStyle=orthogonalEdgeStyle;rounded=0;orthogonalLoop=1;jettySize=auto;html=1;entryX=0;entryY=0.533;entryDx=0;entryDy=0;entryPerimeter=0;dashed=1;" parent="xQRXT9PR4U_KEEuiP1HM-2" source="dK0z23LkkbQTpKE4wJ74-33" target="xQRXT9PR4U_KEEuiP1HM-19" edge="1">
                    <mxGeometry relative="1" as="geometry">
                        <Array as="points">
                            <mxPoint x="680" y="536"/>
                        </Array>
                    </mxGeometry>
                </mxCell>
                <mxCell id="xQRXT9PR4U_KEEuiP1HM-52" value="Dev" style="text;html=1;align=center;verticalAlign=middle;resizable=0;points=[];autosize=1;strokeColor=none;fillColor=none;" parent="xQRXT9PR4U_KEEuiP1HM-2" vertex="1">
                    <mxGeometry x="200" y="-60" width="40" height="30" as="geometry"/>
                </mxCell>
                <mxCell id="xQRXT9PR4U_KEEuiP1HM-53" value="UsuÃ¡rio" style="image;points=[];aspect=fixed;html=1;align=center;shadow=0;dashed=0;image=img/lib/allied_telesis/computer_and_terminals/Personal_Computer.svg;" parent="xQRXT9PR4U_KEEuiP1HM-2" vertex="1">
                    <mxGeometry x="830" y="-120" width="45.6" height="61.800000000000004" as="geometry"/>
                </mxCell>
                <mxCell id="xQRXT9PR4U_KEEuiP1HM-54" value="" style="shape=actor;whiteSpace=wrap;html=1;" parent="xQRXT9PR4U_KEEuiP1HM-2" vertex="1">
                    <mxGeometry x="200" y="-120" width="40" height="60" as="geometry"/>
                </mxCell>
                <mxCell id="xQRXT9PR4U_KEEuiP1HM-55" style="edgeStyle=orthogonalEdgeStyle;rounded=0;orthogonalLoop=1;jettySize=auto;html=1;entryX=0.5;entryY=0;entryDx=0;entryDy=0;entryPerimeter=0;" parent="xQRXT9PR4U_KEEuiP1HM-2" source="xQRXT9PR4U_KEEuiP1HM-52" target="xQRXT9PR4U_KEEuiP1HM-27" edge="1">
                    <mxGeometry relative="1" as="geometry"/>
                </mxCell>
                <mxCell id="xQRXT9PR4U_KEEuiP1HM-56" value="&lt;ol&gt;&lt;li&gt;S3 Version&lt;/li&gt;&lt;li&gt;VPC&lt;/li&gt;&lt;li&gt;EC2&lt;/li&gt;&lt;li&gt;RDS&lt;/li&gt;&lt;li&gt;S3 WebApp&lt;/li&gt;&lt;li&gt;CodePipeline&lt;/li&gt;&lt;li&gt;CodeDeploy&lt;/li&gt;&lt;/ol&gt;" style="text;html=1;align=center;verticalAlign=middle;resizable=0;points=[];autosize=1;strokeColor=none;fillColor=none;" parent="1" vertex="1">
                    <mxGeometry x="-167.53" y="70" width="130" height="140" as="geometry"/>
                </mxCell>
                <mxCell id="xQRXT9PR4U_KEEuiP1HM-41" value="Terraform&#10;" style="shape=image;verticalLabelPosition=bottom;labelBackgroundColor=default;verticalAlign=top;aspect=fixed;imageAspect=0;image=https://static-00.iconduck.com/assets.00/terraform-icon-1803x2048-hodrzd3t.png;fontStyle=1" parent="1" vertex="1">
                    <mxGeometry x="-120" y="575.44" width="54.95" height="62.44" as="geometry"/>
                </mxCell>
                <mxCell id="xQRXT9PR4U_KEEuiP1HM-45" style="edgeStyle=orthogonalEdgeStyle;rounded=0;orthogonalLoop=1;jettySize=auto;html=1;" parent="1" target="xQRXT9PR4U_KEEuiP1HM-41" edge="1">
                    <mxGeometry relative="1" as="geometry">
                        <mxPoint x="-186.6300000000001" y="606.6599999999999" as="sourcePoint"/>
                    </mxGeometry>
                </mxCell>
                <mxCell id="xQRXT9PR4U_KEEuiP1HM-48" value=".tf" style="sketch=0;aspect=fixed;pointerEvents=1;shadow=0;dashed=0;html=1;strokeColor=none;labelPosition=center;verticalLabelPosition=bottom;verticalAlign=top;align=center;fillColor=#6C0AFF;shape=mxgraph.azure.file" parent="1" vertex="1">
                    <mxGeometry x="-230" y="581.6600000000001" width="47" height="50" as="geometry"/>
                </mxCell>
                <mxCell id="dK0z23LkkbQTpKE4wJ74-43" style="edgeStyle=orthogonalEdgeStyle;rounded=0;orthogonalLoop=1;jettySize=auto;html=1;entryX=-0.003;entryY=0.688;entryDx=0;entryDy=0;entryPerimeter=0;" parent="1" source="xQRXT9PR4U_KEEuiP1HM-41" target="xQRXT9PR4U_KEEuiP1HM-3" edge="1">
                    <mxGeometry relative="1" as="geometry"/>
                </mxCell>
            </root>
        </mxGraphModel>
    </diagram>
</mxfile>